<?xml version="1.0" encoding="UTF-8"?>
<svg version="1.1" xmlns="http://www.w3.org/2000/svg" width="266" height="266">
<path d="M0 0 C87.78 0 175.56 0 266 0 C266 87.78 266 175.56 266 266 C178.22 266 90.44 266 0 266 C0 178.22 0 90.44 0 0 Z " fill="#FEFEFD" transform="translate(0,0)"/>
<path d="M0 0 C1.87171875 -0.00386719 1.87171875 -0.00386719 3.78125 -0.0078125 C5.74578125 0.00378906 5.74578125 0.00378906 7.75 0.015625 C9.0596875 0.00789063 10.369375 0.00015625 11.71875 -0.0078125 C12.9665625 -0.00523438 14.214375 -0.00265625 15.5 0 C16.64984375 0.00225586 17.7996875 0.00451172 18.984375 0.00683594 C21.75 0.265625 21.75 0.265625 23.75 2.265625 C24.42016602 4.38867187 24.42016602 4.38867187 25.00390625 6.984375 C25.32584961 8.38236328 25.32584961 8.38236328 25.65429688 9.80859375 C25.87150391 10.78441406 26.08871094 11.76023437 26.3125 12.765625 C26.74919343 14.69318727 27.18789804 16.62029534 27.62890625 18.546875 C27.8204126 19.40345703 28.01191895 20.26003906 28.20922852 21.14257812 C28.67869411 23.30018104 28.67869411 23.30018104 29.75 25.265625 C32.09970406 26.13676371 34.41906368 26.91134364 36.8125 27.640625 C41.20237133 29.02106814 45.33346655 30.39792436 49.375 32.640625 C53.23014145 34.49680422 53.81624609 34.56585738 57.75 33.265625 C61.24496669 31.26246959 64.55046515 28.96613515 67.8671875 26.68359375 C68.89199219 26.00876953 68.89199219 26.00876953 69.9375 25.3203125 C70.54980469 24.90249512 71.16210938 24.48467773 71.79296875 24.05419922 C74.53685415 22.94856675 75.96845445 23.31590067 78.75 24.265625 C82.17974616 26.82838466 85.10417573 29.92518733 88.125 32.953125 C88.96933594 33.75685547 89.81367188 34.56058594 90.68359375 35.38867188 C91.47636719 36.17693359 92.26914063 36.96519531 93.0859375 37.77734375 C93.81345215 38.49365967 94.5409668 39.20997559 95.29052734 39.94799805 C96.75 42.265625 96.75 42.265625 96.62402344 45.30175781 C95.82208867 48.0211679 95.02835719 49.86546746 93.4296875 52.17578125 C92.75099609 53.19575195 92.75099609 53.19575195 92.05859375 54.23632812 C91.09854329 55.6371647 90.1349644 57.03558927 89.16796875 58.43164062 C86.51231817 62.28558018 86.51231817 62.28558018 85.7265625 66.765625 C87.45736701 70.99354442 89.29646085 75.1524414 91.22265625 79.29492188 C93.03514982 83.29529994 94.25246975 86.85004406 94.75 91.265625 C95.36520508 91.37108643 95.98041016 91.47654785 96.61425781 91.58520508 C99.41163524 92.07139582 102.20569932 92.57456492 105 93.078125 C105.96808594 93.24376953 106.93617188 93.40941406 107.93359375 93.58007812 C108.86816406 93.75087891 109.80273438 93.92167969 110.765625 94.09765625 C111.62446289 94.24952393 112.48330078 94.4013916 113.36816406 94.55786133 C116.17938178 95.393216 117.72590053 96.12413235 119.75 98.265625 C120.26757812 101.12890625 120.26757812 101.12890625 120.28125 104.578125 C120.28898437 106.43824219 120.28898437 106.43824219 120.296875 108.3359375 C120.28140625 109.63273437 120.2659375 110.92953125 120.25 112.265625 C120.27320313 114.21082031 120.27320313 114.21082031 120.296875 116.1953125 C120.29171875 117.43539062 120.2865625 118.67546875 120.28125 119.953125 C120.27673828 121.09136719 120.27222656 122.22960937 120.26757812 123.40234375 C119.75 126.265625 119.75 126.265625 117.99658203 128.0871582 C115.70954908 129.28684393 113.80119212 129.93001972 111.2734375 130.43359375 C110.02046875 130.68979492 110.02046875 130.68979492 108.7421875 130.95117188 C107.44667969 131.19963867 107.44667969 131.19963867 106.125 131.453125 C104.81789062 131.71899414 104.81789062 131.71899414 103.484375 131.99023438 C97.12219474 133.265625 97.12219474 133.265625 94.75 133.265625 C94.60304687 133.90886719 94.45609375 134.55210937 94.3046875 135.21484375 C92.60336759 142.06901188 90.09703255 148.04542383 86.859375 154.3203125 C85.56321627 157.76152264 85.45535817 158.85062491 86.75 162.265625 C88.76911701 165.7529339 91.04861337 169.06481655 93.33203125 172.3828125 C94.00685547 173.40761719 94.00685547 173.40761719 94.6953125 174.453125 C95.11312988 175.06542969 95.53094727 175.67773438 95.96142578 176.30859375 C97.06705825 179.05247915 96.69972433 180.48407945 95.75 183.265625 C93.18724034 186.69537116 90.09043767 189.61980073 87.0625 192.640625 C86.25876953 193.48496094 85.45503906 194.32929688 84.62695312 195.19921875 C83.83869141 195.99199219 83.05042969 196.78476563 82.23828125 197.6015625 C81.16380737 198.69283447 81.16380737 198.69283447 80.06762695 199.80615234 C77.75 201.265625 77.75 201.265625 74.71386719 201.13964844 C71.9944571 200.33771367 70.15015754 199.54398219 67.83984375 197.9453125 C67.15986328 197.49285156 66.47988281 197.04039062 65.77929688 196.57421875 C64.3784603 195.61416829 62.98003573 194.6505894 61.58398438 193.68359375 C57.73004482 191.02794317 57.73004482 191.02794317 53.25 190.2421875 C49.02208058 191.97299201 44.8631836 193.81208585 40.72070312 195.73828125 C36.72032506 197.55077482 33.16558094 198.76809475 28.75 199.265625 C28.64042969 200.00425781 28.53085938 200.74289063 28.41796875 201.50390625 C25.43674699 220.57887801 25.43674699 220.57887801 21.75 224.265625 C17.12238884 224.75455843 12.46297317 224.63603194 7.8125 224.640625 C6.51119141 224.66511719 5.20988281 224.68960938 3.86914062 224.71484375 C2.62455078 224.71871094 1.37996094 224.72257813 0.09765625 224.7265625 C-1.04695068 224.73478027 -2.19155762 224.74299805 -3.37084961 224.75146484 C-6.25 224.265625 -6.25 224.265625 -8.07373047 222.54833984 C-9.34487267 220.08151137 -9.93515697 218.01163386 -10.41796875 215.28125 C-10.58876953 214.34667969 -10.75957031 213.41210938 -10.93554688 212.44921875 C-11.10119141 211.48113281 -11.26683594 210.51304687 -11.4375 209.515625 C-11.70336914 208.04029297 -11.70336914 208.04029297 -11.97460938 206.53515625 C-12.40955856 204.11354729 -12.83429918 201.6905994 -13.25 199.265625 C-13.96115967 199.09659668 -14.67231934 198.92756836 -15.4050293 198.75341797 C-22.19383094 197.11070206 -28.10338656 194.57468845 -34.3046875 191.375 C-37.74589764 190.07884127 -38.83499991 189.97098317 -42.25 191.265625 C-45.7373089 193.28474201 -49.04919155 195.56423837 -52.3671875 197.84765625 C-53.39199219 198.52248047 -53.39199219 198.52248047 -54.4375 199.2109375 C-55.04980469 199.62875488 -55.66210938 200.04657227 -56.29296875 200.47705078 C-59.03685415 201.58268325 -60.46845445 201.21534933 -63.25 200.265625 C-66.67974616 197.70286534 -69.60417573 194.60606267 -72.625 191.578125 C-73.46933594 190.77439453 -74.31367187 189.97066406 -75.18359375 189.14257812 C-75.97636719 188.35431641 -76.76914063 187.56605469 -77.5859375 186.75390625 C-78.31345215 186.03759033 -79.0409668 185.32127441 -79.79052734 184.58325195 C-81.25 182.265625 -81.25 182.265625 -81.12402344 179.22949219 C-80.32208867 176.5100821 -79.52835719 174.66578254 -77.9296875 172.35546875 C-77.47722656 171.67548828 -77.02476563 170.99550781 -76.55859375 170.29492188 C-75.59854329 168.8940853 -74.6349644 167.49566073 -73.66796875 166.09960938 C-70.95951965 162.17450685 -70.95951965 162.17450685 -70.296875 157.58984375 C-71.33411249 155.06051461 -72.41675897 152.59372042 -73.625 150.140625 C-76.20036104 144.65398627 -77.84989673 139.1506119 -79.25 133.265625 C-79.82967529 133.16016357 -80.40935059 133.05470215 -81.0065918 132.94604492 C-83.65224271 132.45869513 -86.2947707 131.95606656 -88.9375 131.453125 C-89.84951172 131.28748047 -90.76152344 131.12183594 -91.70117188 130.95117188 C-92.58740234 130.78037109 -93.47363281 130.60957031 -94.38671875 130.43359375 C-95.19842529 130.28172607 -96.01013184 130.1298584 -96.84643555 129.97338867 C-99.80691954 129.10163214 -101.84464193 128.22569234 -104.25 126.265625 C-104.88110352 123.40234375 -104.88110352 123.40234375 -104.87890625 119.953125 C-104.88083984 118.71304688 -104.88277344 117.47296875 -104.88476562 116.1953125 C-104.86091797 114.89851563 -104.83707031 113.60171875 -104.8125 112.265625 C-104.82345703 110.96882813 -104.83441406 109.67203125 -104.84570312 108.3359375 C-104.77137196 98.80172701 -104.77137196 98.80172701 -102.47851562 96.4440918 C-100.28349166 95.28333581 -98.44955078 94.61281593 -96.02734375 94.09765625 C-95.24166016 93.92685547 -94.45597656 93.75605469 -93.64648438 93.58007812 C-92.83501953 93.41443359 -92.02355469 93.24878906 -91.1875 93.078125 C-90.37216797 92.90087891 -89.55683594 92.72363281 -88.71679688 92.54101562 C-85.47329547 91.85073883 -82.5781312 91.265625 -79.25 91.265625 C-79.10304688 90.62238281 -78.95609375 89.97914062 -78.8046875 89.31640625 C-77.10336759 82.46223812 -74.59703255 76.48582617 -71.359375 70.2109375 C-70.06321627 66.76972736 -69.95535817 65.68062509 -71.25 62.265625 C-73.26911701 58.7783161 -75.54861337 55.46643345 -77.83203125 52.1484375 C-78.28191406 51.46523437 -78.73179688 50.78203125 -79.1953125 50.078125 C-79.61312988 49.46582031 -80.03094727 48.85351562 -80.46142578 48.22265625 C-81.56705825 45.47877085 -81.19972433 44.04717055 -80.25 41.265625 C-77.68724034 37.83587884 -74.59043767 34.91144927 -71.5625 31.890625 C-70.75876953 31.04628906 -69.95503906 30.20195313 -69.12695312 29.33203125 C-67.94456055 28.14287109 -67.94456055 28.14287109 -66.73828125 26.9296875 C-66.02196533 26.20217285 -65.30564941 25.4746582 -64.56762695 24.72509766 C-62.25 23.265625 -62.25 23.265625 -59.21386719 23.39160156 C-56.4944571 24.19353633 -54.65015754 24.98726781 -52.33984375 26.5859375 C-51.65986328 27.03839844 -50.97988281 27.49085937 -50.27929688 27.95703125 C-48.8784603 28.91708171 -47.48003573 29.8806606 -46.08398438 30.84765625 C-42.23004482 33.50330683 -42.23004482 33.50330683 -37.75 34.2890625 C-33.52208058 32.55825799 -29.3631836 30.71916415 -25.22070312 28.79296875 C-21.22032506 26.98047518 -17.66558094 25.76315525 -13.25 25.265625 C-13.14042969 24.52699219 -13.03085938 23.78835937 -12.91796875 23.02734375 C-9.32189022 0.01828846 -9.32189022 0.01828846 0 0 Z " fill="#6F6E6C" transform="translate(125.25,20.734375)"/>
<path d="M0 0 C1.87171875 -0.00386719 1.87171875 -0.00386719 3.78125 -0.0078125 C5.74578125 0.00378906 5.74578125 0.00378906 7.75 0.015625 C9.0596875 0.00789063 10.369375 0.00015625 11.71875 -0.0078125 C12.9665625 -0.00523438 14.214375 -0.00265625 15.5 0 C16.64984375 0.00225586 17.7996875 0.00451172 18.984375 0.00683594 C21.75 0.265625 21.75 0.265625 23.75 2.265625 C24.42016602 4.38867187 24.42016602 4.38867187 25.00390625 6.984375 C25.32584961 8.38236328 25.32584961 8.38236328 25.65429688 9.80859375 C25.87150391 10.78441406 26.08871094 11.76023437 26.3125 12.765625 C26.74919343 14.69318727 27.18789804 16.62029534 27.62890625 18.546875 C27.8204126 19.40345703 28.01191895 20.26003906 28.20922852 21.14257812 C28.67869411 23.30018104 28.67869411 23.30018104 29.75 25.265625 C32.09970406 26.13676371 34.41906368 26.91134364 36.8125 27.640625 C41.20237133 29.02106814 45.33346655 30.39792436 49.375 32.640625 C53.23014145 34.49680422 53.81624609 34.56585738 57.75 33.265625 C61.24496669 31.26246959 64.55046515 28.96613515 67.8671875 26.68359375 C68.89199219 26.00876953 68.89199219 26.00876953 69.9375 25.3203125 C70.54980469 24.90249512 71.16210938 24.48467773 71.79296875 24.05419922 C74.53685415 22.94856675 75.96845445 23.31590067 78.75 24.265625 C82.17974616 26.82838466 85.10417573 29.92518733 88.125 32.953125 C88.96933594 33.75685547 89.81367188 34.56058594 90.68359375 35.38867188 C91.47636719 36.17693359 92.26914063 36.96519531 93.0859375 37.77734375 C93.81345215 38.49365967 94.5409668 39.20997559 95.29052734 39.94799805 C96.75 42.265625 96.75 42.265625 96.62402344 45.30175781 C95.82208867 48.0211679 95.02835719 49.86546746 93.4296875 52.17578125 C92.75099609 53.19575195 92.75099609 53.19575195 92.05859375 54.23632812 C91.09854329 55.6371647 90.1349644 57.03558927 89.16796875 58.43164062 C86.51231817 62.28558018 86.51231817 62.28558018 85.7265625 66.765625 C87.45736701 70.99354442 89.29646085 75.1524414 91.22265625 79.29492188 C93.03514982 83.29529994 94.25246975 86.85004406 94.75 91.265625 C95.36520508 91.37108643 95.98041016 91.47654785 96.61425781 91.58520508 C99.41163524 92.07139582 102.20569932 92.57456492 105 93.078125 C105.96808594 93.24376953 106.93617188 93.40941406 107.93359375 93.58007812 C108.86816406 93.75087891 109.80273438 93.92167969 110.765625 94.09765625 C111.62446289 94.24952393 112.48330078 94.4013916 113.36816406 94.55786133 C116.17938178 95.393216 117.72590053 96.12413235 119.75 98.265625 C120.26757812 101.12890625 120.26757812 101.12890625 120.28125 104.578125 C120.28898437 106.43824219 120.28898437 106.43824219 120.296875 108.3359375 C120.28140625 109.63273437 120.2659375 110.92953125 120.25 112.265625 C120.27320313 114.21082031 120.27320313 114.21082031 120.296875 116.1953125 C120.29171875 117.43539062 120.2865625 118.67546875 120.28125 119.953125 C120.27673828 121.09136719 120.27222656 122.22960937 120.26757812 123.40234375 C119.75 126.265625 119.75 126.265625 117.99658203 128.0871582 C115.70954908 129.28684393 113.80119212 129.93001972 111.2734375 130.43359375 C110.02046875 130.68979492 110.02046875 130.68979492 108.7421875 130.95117188 C107.44667969 131.19963867 107.44667969 131.19963867 106.125 131.453125 C104.81789062 131.71899414 104.81789062 131.71899414 103.484375 131.99023438 C97.12219474 133.265625 97.12219474 133.265625 94.75 133.265625 C94.60304687 133.90886719 94.45609375 134.55210937 94.3046875 135.21484375 C92.60336759 142.06901188 90.09703255 148.04542383 86.859375 154.3203125 C85.56321627 157.76152264 85.45535817 158.85062491 86.75 162.265625 C88.76911701 165.7529339 91.04861337 169.06481655 93.33203125 172.3828125 C94.00685547 173.40761719 94.00685547 173.40761719 94.6953125 174.453125 C95.11312988 175.06542969 95.53094727 175.67773438 95.96142578 176.30859375 C97.06705825 179.05247915 96.69972433 180.48407945 95.75 183.265625 C93.18724034 186.69537116 90.09043767 189.61980073 87.0625 192.640625 C86.25876953 193.48496094 85.45503906 194.32929688 84.62695312 195.19921875 C83.83869141 195.99199219 83.05042969 196.78476563 82.23828125 197.6015625 C81.16380737 198.69283447 81.16380737 198.69283447 80.06762695 199.80615234 C77.75 201.265625 77.75 201.265625 74.71386719 201.13964844 C71.9944571 200.33771367 70.15015754 199.54398219 67.83984375 197.9453125 C67.15986328 197.49285156 66.47988281 197.04039062 65.77929688 196.57421875 C64.3784603 195.61416829 62.98003573 194.6505894 61.58398438 193.68359375 C57.73004482 191.02794317 57.73004482 191.02794317 53.25 190.2421875 C49.02208058 191.97299201 44.8631836 193.81208585 40.72070312 195.73828125 C36.72032506 197.55077482 33.16558094 198.76809475 28.75 199.265625 C28.64042969 200.00425781 28.53085938 200.74289063 28.41796875 201.50390625 C25.43674699 220.57887801 25.43674699 220.57887801 21.75 224.265625 C17.12238884 224.75455843 12.46297317 224.63603194 7.8125 224.640625 C6.51119141 224.66511719 5.20988281 224.68960938 3.86914062 224.71484375 C2.62455078 224.71871094 1.37996094 224.72257813 0.09765625 224.7265625 C-1.04695068 224.73478027 -2.19155762 224.74299805 -3.37084961 224.75146484 C-6.25 224.265625 -6.25 224.265625 -8.07373047 222.54833984 C-9.34487267 220.08151137 -9.93515697 218.01163386 -10.41796875 215.28125 C-10.58876953 214.34667969 -10.75957031 213.41210938 -10.93554688 212.44921875 C-11.10119141 211.48113281 -11.26683594 210.51304687 -11.4375 209.515625 C-11.70336914 208.04029297 -11.70336914 208.04029297 -11.97460938 206.53515625 C-12.40955856 204.11354729 -12.83429918 201.6905994 -13.25 199.265625 C-13.96115967 199.09659668 -14.67231934 198.92756836 -15.4050293 198.75341797 C-22.19383094 197.11070206 -28.10338656 194.57468845 -34.3046875 191.375 C-37.74589764 190.07884127 -38.83499991 189.97098317 -42.25 191.265625 C-45.7373089 193.28474201 -49.04919155 195.56423837 -52.3671875 197.84765625 C-53.39199219 198.52248047 -53.39199219 198.52248047 -54.4375 199.2109375 C-55.04980469 199.62875488 -55.66210938 200.04657227 -56.29296875 200.47705078 C-59.03685415 201.58268325 -60.46845445 201.21534933 -63.25 200.265625 C-66.67974616 197.70286534 -69.60417573 194.60606267 -72.625 191.578125 C-73.46933594 190.77439453 -74.31367187 189.97066406 -75.18359375 189.14257812 C-75.97636719 188.35431641 -76.76914063 187.56605469 -77.5859375 186.75390625 C-78.31345215 186.03759033 -79.0409668 185.32127441 -79.79052734 184.58325195 C-81.25 182.265625 -81.25 182.265625 -81.12402344 179.22949219 C-80.32208867 176.5100821 -79.52835719 174.66578254 -77.9296875 172.35546875 C-77.47722656 171.67548828 -77.02476563 170.99550781 -76.55859375 170.29492188 C-75.59854329 168.8940853 -74.6349644 167.49566073 -73.66796875 166.09960938 C-70.95951965 162.17450685 -70.95951965 162.17450685 -70.296875 157.58984375 C-71.33411249 155.06051461 -72.41675897 152.59372042 -73.625 150.140625 C-76.20036104 144.65398627 -77.84989673 139.1506119 -79.25 133.265625 C-79.82967529 133.16016357 -80.40935059 133.05470215 -81.0065918 132.94604492 C-83.65224271 132.45869513 -86.2947707 131.95606656 -88.9375 131.453125 C-89.84951172 131.28748047 -90.76152344 131.12183594 -91.70117188 130.95117188 C-92.58740234 130.78037109 -93.47363281 130.60957031 -94.38671875 130.43359375 C-95.19842529 130.28172607 -96.01013184 130.1298584 -96.84643555 129.97338867 C-99.80691954 129.10163214 -101.84464193 128.22569234 -104.25 126.265625 C-104.88110352 123.40234375 -104.88110352 123.40234375 -104.87890625 119.953125 C-104.88083984 118.71304688 -104.88277344 117.47296875 -104.88476562 116.1953125 C-104.86091797 114.89851563 -104.83707031 113.60171875 -104.8125 112.265625 C-104.82345703 110.96882813 -104.83441406 109.67203125 -104.84570312 108.3359375 C-104.77137196 98.80172701 -104.77137196 98.80172701 -102.47851562 96.4440918 C-100.28349166 95.28333581 -98.44955078 94.61281593 -96.02734375 94.09765625 C-95.24166016 93.92685547 -94.45597656 93.75605469 -93.64648438 93.58007812 C-92.83501953 93.41443359 -92.02355469 93.24878906 -91.1875 93.078125 C-90.37216797 92.90087891 -89.55683594 92.72363281 -88.71679688 92.54101562 C-85.47329547 91.85073883 -82.5781312 91.265625 -79.25 91.265625 C-79.10304688 90.62238281 -78.95609375 89.97914062 -78.8046875 89.31640625 C-77.10336759 82.46223812 -74.59703255 76.48582617 -71.359375 70.2109375 C-70.06321627 66.76972736 -69.95535817 65.68062509 -71.25 62.265625 C-73.26911701 58.7783161 -75.54861337 55.46643345 -77.83203125 52.1484375 C-78.28191406 51.46523437 -78.73179688 50.78203125 -79.1953125 50.078125 C-79.61312988 49.46582031 -80.03094727 48.85351562 -80.46142578 48.22265625 C-81.56705825 45.47877085 -81.19972433 44.04717055 -80.25 41.265625 C-77.68724034 37.83587884 -74.59043767 34.91144927 -71.5625 31.890625 C-70.75876953 31.04628906 -69.95503906 30.20195313 -69.12695312 29.33203125 C-67.94456055 28.14287109 -67.94456055 28.14287109 -66.73828125 26.9296875 C-66.02196533 26.20217285 -65.30564941 25.4746582 -64.56762695 24.72509766 C-62.25 23.265625 -62.25 23.265625 -59.21386719 23.39160156 C-56.4944571 24.19353633 -54.65015754 24.98726781 -52.33984375 26.5859375 C-51.65986328 27.03839844 -50.97988281 27.49085937 -50.27929688 27.95703125 C-48.8784603 28.91708171 -47.48003573 29.8806606 -46.08398438 30.84765625 C-42.23004482 33.50330683 -42.23004482 33.50330683 -37.75 34.2890625 C-33.52208058 32.55825799 -29.3631836 30.71916415 -25.22070312 28.79296875 C-21.22032506 26.98047518 -17.66558094 25.76315525 -13.25 25.265625 C-13.14042969 24.52699219 -13.03085938 23.78835937 -12.91796875 23.02734375 C-9.32189022 0.01828846 -9.32189022 0.01828846 0 0 Z M-1.25 8.265625 C-1.77400391 10.50472656 -1.77400391 10.50472656 -2.30859375 12.7890625 C-2.76809869 14.73961408 -3.22774123 16.69013324 -3.6875 18.640625 C-3.91759766 19.62546875 -4.14769531 20.6103125 -4.38476562 21.625 C-4.60712891 22.56601562 -4.82949219 23.50703125 -5.05859375 24.4765625 C-5.26282959 25.34587402 -5.46706543 26.21518555 -5.67749023 27.11083984 C-6.25 29.265625 -6.25 29.265625 -7.25 31.265625 C-10.01273182 32.23034108 -12.76288025 33.1097543 -15.5625 33.953125 C-22.72093536 36.19004737 -28.61782639 38.85002134 -34.8671875 43.04296875 C-37.25 44.265625 -37.25 44.265625 -39.17382812 43.97119141 C-41.28745466 43.2528964 -42.96133742 42.3809295 -44.8515625 41.19921875 C-45.50640625 40.79638672 -46.16125 40.39355469 -46.8359375 39.97851562 C-47.50882813 39.55763672 -48.18171875 39.13675781 -48.875 38.703125 C-53.26188537 35.56496207 -53.26188537 35.56496207 -58.25 34.265625 C-58.25 33.605625 -58.25 32.945625 -58.25 32.265625 C-61.40835107 33.66312548 -63.57272825 35.31760734 -66 37.765625 C-66.61359375 38.3740625 -67.2271875 38.9825 -67.859375 39.609375 C-69.46434088 41.16046777 -69.46434088 41.16046777 -69.25 43.265625 C-70.735 43.760625 -70.735 43.760625 -72.25 44.265625 C-71.35749982 45.93407895 -70.46079008 47.60028117 -69.5625 49.265625 C-69.02109375 50.27109375 -68.4796875 51.2765625 -67.921875 52.3125 C-66.15119067 55.44015736 -64.19021442 58.34533911 -62.03515625 61.21875 C-60.78386434 64.48082443 -61.48349954 66.90371834 -62.25 70.265625 C-63.7734375 73.58984375 -63.7734375 73.58984375 -65.625 76.953125 C-68.15042542 81.62169823 -69.70087022 85.66504903 -70.625 90.953125 C-71.73123291 95.86610058 -71.73123291 95.86610058 -73.8984375 97.53515625 C-76.33741189 98.38290385 -78.70546132 98.81578078 -81.25 99.265625 C-83.1930228 99.76232624 -85.1241177 100.29419021 -87.0559082 100.83276367 C-90.11267866 101.67310271 -93.18277667 102.46427837 -96.25 103.265625 C-96.25 109.205625 -96.25 115.145625 -96.25 121.265625 C-94.496875 121.69875 -92.74375 122.131875 -90.9375 122.578125 C-89.844375 122.87460938 -88.75125 123.17109375 -87.625 123.4765625 C-84.33920872 124.34807952 -84.33920872 124.34807952 -81.25 124.4296875 C-77.77306481 124.76772287 -76.0712955 125.14853912 -73.25 127.265625 C-70.68118106 131.91891037 -69.31953941 137.02828267 -67.8828125 142.1171875 C-66.59480867 146.61587982 -64.70813419 150.35686428 -62.25830078 154.33203125 C-61.25 156.265625 -61.25 156.265625 -61 159.640625 C-63.39096173 166.57441403 -67.82616685 172.47121778 -72.25 178.265625 C-70.71986989 181.82501856 -68.61373709 184.29393885 -65.9375 187.078125 C-65.17824219 187.88894531 -64.41898438 188.69976562 -63.63671875 189.53515625 C-61.42648251 191.48312864 -61.42648251 191.48312864 -58.91796875 191.31640625 C-54.56153565 189.6006222 -50.80766463 186.96049353 -46.953125 184.328125 C-43.57137518 182.1610445 -41.80663298 181.26318095 -37.69140625 181.28125 C-33.9792219 182.34307799 -30.94321951 183.77946234 -27.5625 185.640625 C-22.01665999 188.60379938 -16.80162114 190.39767452 -10.578125 191.5625 C-8.25 192.265625 -8.25 192.265625 -6.25 195.265625 C-5.76231293 196.87811631 -5.33901514 198.51069086 -4.9609375 200.15234375 C-4.74179688 201.09013672 -4.52265625 202.02792969 -4.296875 202.99414062 C-4.07515625 203.97060547 -3.8534375 204.94707031 -3.625 205.953125 C-3.39554687 206.94119141 -3.16609375 207.92925781 -2.9296875 208.94726562 C-2.36431043 211.38545423 -1.80643528 213.8253802 -1.25 216.265625 C4.69 216.265625 10.63 216.265625 16.75 216.265625 C17.27400391 214.02652344 17.27400391 214.02652344 17.80859375 211.7421875 C18.26809869 209.79163592 18.72774123 207.84111676 19.1875 205.890625 C19.41759766 204.90578125 19.64769531 203.9209375 19.88476562 202.90625 C20.10712891 201.96523437 20.32949219 201.02421875 20.55859375 200.0546875 C20.86494751 198.75072021 20.86494751 198.75072021 21.17749023 197.42041016 C21.75 195.265625 21.75 195.265625 22.75 193.265625 C24.95583601 192.46865854 27.19172098 191.75439761 29.4375 191.078125 C36.29535193 188.9556925 42.30059303 186.06897801 48.53125 182.5234375 C52.60093992 180.93309751 54.54640209 181.09115698 58.75 182.265625 C61.70443107 183.75162721 64.43603722 185.49801207 67.1875 187.328125 C67.91904297 187.80056641 68.65058594 188.27300781 69.40429688 188.75976562 C71.19335834 189.91739363 72.97270714 191.09000872 74.75 192.265625 C75.85591268 191.33279523 76.95965168 190.39738816 78.0625 189.4609375 C78.67738281 188.94031738 79.29226562 188.41969727 79.92578125 187.88330078 C82.60722196 185.50546002 84.69631702 183.21779428 86.75 180.265625 C86.38586477 177.32809719 85.28169297 175.27093791 83.6484375 172.83984375 C83.24109375 172.20755859 82.83375 171.57527344 82.4140625 170.92382812 C81.55768554 169.6146094 80.69051317 168.31238624 79.8125 167.01757812 C77.61888589 163.56997123 76.74163479 161.82191136 76.8046875 157.62890625 C77.72658309 154.34893888 78.84474324 151.73484847 80.5 148.765625 C82.37645991 145.30139132 83.8746246 142.1310568 84.73046875 138.296875 C85.6678074 134.21637663 86.60876701 130.90751291 88.75 127.265625 C93.65634729 124.68723136 98.25881645 124.03273506 103.75 123.265625 C106.39 122.605625 109.03 121.945625 111.75 121.265625 C111.75 115.325625 111.75 109.385625 111.75 103.265625 C110.34105469 102.91628906 108.93210938 102.56695312 107.48046875 102.20703125 C105.63279702 101.74745808 103.78514161 101.28781925 101.9375 100.828125 C101.00873047 100.59802734 100.07996094 100.36792969 99.12304688 100.13085938 C98.23037109 99.90849609 97.33769531 99.68613281 96.41796875 99.45703125 C95.59578857 99.25279541 94.7736084 99.04855957 93.92651367 98.83813477 C92.18247603 98.37938342 90.46082088 97.83589863 88.75 97.265625 C87.68193761 94.47131051 86.77931212 91.7527862 85.9375 88.890625 C83.89986837 82.28150916 81.59935011 76.5341917 77.75390625 70.72265625 C76.29287062 67.14681419 76.78221354 64.98144708 77.75 61.265625 C79.43954718 58.08879122 81.57202378 55.24232749 83.6875 52.33984375 C85.49101988 49.73795042 86.72881141 47.87825165 86.83984375 44.66796875 C85.35422531 41.39321843 83.28833712 39.42227416 80.6875 36.953125 C79.76839844 36.07011719 78.84929687 35.18710937 77.90234375 34.27734375 C77.19207031 33.61347656 76.48179687 32.94960938 75.75 32.265625 C73.1270135 33.46755046 70.73595947 34.89338983 68.32421875 36.46484375 C67.69193359 36.86896484 67.05964844 37.27308594 66.40820312 37.68945312 C65.09730951 38.53003604 63.79504629 39.38423672 62.50195312 40.25195312 C59.0558594 42.42016407 57.28898961 43.27430904 53.11328125 43.20703125 C49.83113022 42.28833392 47.2202271 41.17144126 44.25 39.515625 C40.78576632 37.63916509 37.6154318 36.1410004 33.78125 35.28515625 C29.70075163 34.3478176 26.39188791 33.40685799 22.75 31.265625 C20.17160636 26.35927771 19.51711006 21.75680855 18.75 16.265625 C17.76 12.305625 17.76 12.305625 16.75 8.265625 C10.81 8.265625 4.87 8.265625 -1.25 8.265625 Z " fill="#191709" transform="translate(125.25,20.734375)"/>
<path d="M0 0 C15.45286241 12.0870273 26.3229572 27.22745582 29 47 C30.37002423 65.13167876 27.4985224 82.02974315 15.8984375 96.6484375 C13.67732246 99.19012585 11.38025706 101.60741001 9 104 C8.40832031 104.62648438 7.81664062 105.25296875 7.20703125 105.8984375 C3.01974461 109.9840461 -1.70041387 112.62326374 -6.875 115.25 C-7.52283447 115.5795166 -8.17066895 115.9090332 -8.83813477 116.24853516 C-23.90722409 123.5632638 -41.92979185 125.10196474 -57.9753418 119.89648438 C-66.19364073 116.82622355 -73.40861123 112.85779566 -80 107 C-80.79664062 106.30003906 -81.59328125 105.60007812 -82.4140625 104.87890625 C-93.30083827 94.66572697 -102.07718743 79.57197829 -103.1887207 64.42895508 C-103.26761937 61.61640539 -103.27299862 58.81349769 -103.25 56 C-103.25773437 55.05382812 -103.26546875 54.10765625 -103.2734375 53.1328125 C-103.22395493 35.26960452 -95.31518318 20.67417515 -83.375 7.8125 C-61.62514854 -13.23466395 -25.39019633 -16.87067422 0 0 Z M-82.78515625 19.00390625 C-94.03613859 33.24747725 -96.61271843 49.29943182 -95 67 C-94.12823164 71.2828415 -92.84367016 75.04656296 -91 79 C-90.67644531 79.7425 -90.35289063 80.485 -90.01953125 81.25 C-87.86312668 85.8972719 -85.0687449 89.90834013 -82 94 C-79.34327341 91.68655831 -78.36540179 89.68963738 -77.25 86.375 C-73.48355658 76.6473811 -67.06186771 70.06359807 -58 65 C-46.44389397 59.89669949 -34.81464163 58.50301961 -22.56640625 61.97265625 C-10.70161057 66.67323135 -1.98776272 74.08386786 3.375 85.8125 C4.50480234 88.50928906 5.34680084 91.15025858 6 94 C6.66 94 7.32 94 8 94 C16.84581748 82.14747609 21.4108669 70.90284516 21.3125 56.125 C21.30758545 55.24730957 21.3026709 54.36961914 21.29760742 53.46533203 C20.99732097 36.83100249 13.7904574 23.39948424 2 11.9375 C-11.65146989 -0.14954496 -26.7395436 -2.95441321 -44.44873047 -2.1953125 C-60.01445855 -1.00367781 -72.62322337 7.59674746 -82.78515625 19.00390625 Z " fill="#181608" transform="translate(170,77)"/>
<path d="M0 0 C9.14680907 5.65782004 15.72578706 13.34603447 18.5859375 23.78125 C19.3984375 27.53125 19.3984375 27.53125 18.5859375 30.78125 C8.71437358 40.37539292 -6.34290468 43.19103871 -19.55371094 43.07226562 C-31.24093864 42.8145644 -44.79201737 39.40329513 -53.4140625 30.78125 C-54.30361403 22.24155534 -50.38837931 15.25183009 -45.1640625 8.6953125 C-33.05209163 -4.55215564 -16.16178401 -8.15934727 0 0 Z " fill="#CBCBC7" transform="translate(150.4140625,148.21875)"/>
<path d="M0 0 C6.54334073 3.28306991 10.89594956 6.91345876 13.6171875 13.78515625 C15.263285 19.76844325 15.30126757 25.81833555 12.8125 31.5625 C9.18869828 37.77655436 3.34217118 42.78936969 -3.5625 44.93359375 C-11.11436365 46.28015767 -17.15436978 44.2532876 -23.484375 40.1328125 C-27.70614941 36.64460882 -29.97700107 32.44399679 -31.6875 27.3125 C-32.37849849 18.9673644 -31.29345205 13.2609122 -26.625 6.1875 C-19.5603103 -1.70458579 -9.62093414 -3.92559855 0 0 Z " fill="#19180A" transform="translate(141.6875,89.6875)"/>
<path d="M0 0 C3.99123898 2.54759935 6.79280716 5.58561432 8.9375 9.875 C9.51575746 14.61481526 9.41010429 17.99497823 7.125 22.25 C1.85985146 28.56817825 1.85985146 28.56817825 -3.33203125 29.11328125 C-9.12341255 29.28230774 -12.58207322 28.92871947 -17.0625 24.875 C-20.7359615 20.7181883 -21.71270633 17.45681949 -21.44921875 12.05078125 C-20.619058 7.38007884 -17.91064506 4.6403992 -14.5 1.5625 C-9.73601195 -1.73564558 -5.38749343 -1.97907922 0 0 Z " fill="#CCC9C5" transform="translate(139.0625,97.125)"/>
<path d="M0 0 C0.33 0.99 0.66 1.98 1 3 C1.99 3.33 2.98 3.66 4 4 C3.67 4.66 3.34 5.32 3 6 C2.01 5.67 1.02 5.34 0 5 C-0.99 5.66 -1.98 6.32 -3 7 C-3.33 5.68 -3.66 4.36 -4 3 C-3.01 2.67 -2.02 2.34 -1 2 C-0.67 1.34 -0.34 0.68 0 0 Z " fill="#110E05" transform="translate(103,149)"/>
<path d="M0 0 C0.66 0.33 1.32 0.66 2 1 C1.8125 3.375 1.8125 3.375 1 6 C-1.5625 7.3125 -1.5625 7.3125 -4 8 C-2.87548273 5.0280615 -1.77706209 2.66559313 0 0 Z " fill="#202113" transform="translate(210,69)"/>
<path d="M0 0 C0.33 0.66 0.66 1.32 1 2 C0 5 0 5 -2.4375 6.75 C-3.7059375 7.36875 -3.7059375 7.36875 -5 8 C-5.66 7.67 -6.32 7.34 -7 7 C-4.69 4.69 -2.38 2.38 0 0 Z " fill="#E4E3DA" transform="translate(213,211)"/>
<path d="M0 0 C1.65 0.33 3.3 0.66 5 1 C4.01 2.485 4.01 2.485 3 4 C-0.125 4.1875 -0.125 4.1875 -3 4 C-2.01 2.68 -1.02 1.36 0 0 Z " fill="#474437" transform="translate(139,133)"/>
</svg>
