<?xml version="1.0" encoding="UTF-8"?>
<svg version="1.1" xmlns="http://www.w3.org/2000/svg" width="245" height="254">
<path d="M0 0 C80.85 0 161.7 0 245 0 C245 83.82 245 167.64 245 254 C164.15 254 83.3 254 0 254 C0 170.18 0 86.36 0 0 Z " fill="#1C3859" transform="translate(0,0)"/>
<path d="M0 0 C80.85 0 161.7 0 245 0 C245 83.82 245 167.64 245 254 C164.15 254 83.3 254 0 254 C0 170.18 0 86.36 0 0 Z M36.49072266 47.67724609 C27.22384094 58.44503663 20.22107357 70.1499915 15.1875 83.4375 C14.90938477 84.16348389 14.63126953 84.88946777 14.34472656 85.63745117 C9.90940669 97.99394979 8.45942134 110.31755103 8.5625 123.375 C8.56554138 124.04943146 8.56858276 124.72386292 8.57171631 125.41873169 C8.64288539 136.12493445 9.54265887 145.85206354 13 156 C13.22494141 156.68046387 13.44988281 157.36092773 13.68164062 158.06201172 C19.65697311 175.94274152 29.1051798 190.30367361 42 204 C42.55042969 204.61488281 43.10085937 205.22976562 43.66796875 205.86328125 C61.80136317 225.33989007 90.8619708 236.05769332 116.94921875 237.28125 C149.25497685 238.1830682 179.15006074 226.88084964 202.66186523 204.73657227 C222.13651037 185.76055782 235.5715406 158.25720365 236.30078125 130.890625 C236.32044704 128.34382293 236.32388348 125.79685256 236.3125 123.25 C236.30876877 122.25255264 236.30876877 122.25255264 236.30496216 121.23495483 C236.12769013 90.61938513 224.15846532 63.8484509 203.125 41.75 C182.63317724 22.25777835 156.35956681 10.20446037 128 9 C126.94683594 8.94714844 125.89367187 8.89429688 124.80859375 8.83984375 C91.25061125 7.94548269 58.84774948 22.83208687 36.49072266 47.67724609 Z " fill="#F6F6F6" transform="translate(0,0)"/>
<path d="M0 0 C10.70033483 9.2694761 10.70033483 9.2694761 11.45703125 16.57421875 C11.36689976 21.16411234 9.332951 23.6626193 6.125 26.765625 C5.62137939 27.27834961 5.11775879 27.79107422 4.59887695 28.31933594 C3.10635095 29.82295264 1.5876016 31.29517546 0.0625 32.765625 C-0.67742187 33.51328125 -1.41734375 34.2609375 -2.1796875 35.03125 C-20.3015678 52.4009013 -45.40637712 58.30061972 -69.76171875 57.9765625 C-95.40989916 57.21094517 -117.25915389 44.7731757 -135.02734375 26.84375 C-139.80553519 21.6453904 -139.80553519 21.6453904 -140.5 17.015625 C-140.27326584 11.70215931 -137.4551104 8.52582922 -133.9375 4.765625 C-133.380625 4.1675 -132.82375 3.569375 -132.25 2.953125 C-101.00149821 -27.21784224 -33.23441067 -25.27936556 0 0 Z " fill="#CAE3FD" transform="translate(186.9375,160.234375)"/>
<path d="M0 0 C9.07989644 8.19712873 15.21066432 19.6828946 16.37109375 31.91015625 C16.80785814 46.61573158 13.03654264 58.88037722 3 70 C-7.78064087 80.102139 -20.92969838 84.75448136 -35.69921875 84.34765625 C-45.36241608 83.3298757 -53.37561406 79.91627504 -61 74 C-62.03125 73.2575 -63.0625 72.515 -64.125 71.75 C-72.87765993 63.3778905 -78.42846536 52.55428075 -79.23828125 40.43359375 C-79.51013766 25.79627246 -76.0023957 13.87958138 -65.96875 2.74609375 C-47.42275318 -14.95995756 -20.03458878 -15.77723867 0 0 Z " fill="#CAE3FD" transform="translate(154,44)"/>
<path d="M0 0 C1.32 0 2.64 0 4 0 C4.66 1.65 5.32 3.3 6 5 C7.32 4.67 8.64 4.34 10 4 C10 3.01 10 2.02 10 1 C11.98 1 13.96 1 16 1 C16 2.98 16 4.96 16 7 C17.98 7 19.96 7 22 7 C21.67 8.65 21.34 10.3 21 12 C15.72 12 10.44 12 5 12 C4.67 10.35 4.34 8.7 4 7 C2.68 7.33 1.36 7.66 0 8 C-0.33 9.32 -0.66 10.64 -1 12 C-2.65 12 -4.3 12 -6 12 C-6.66 10.35 -7.32 8.7 -8 7 C-9.32 7 -10.64 7 -12 7 C-12 5.35 -12 3.7 -12 2 C-10.35 2 -8.7 2 -7 2 C-6.67 2.99 -6.34 3.98 -6 5 C-5.01 5.33 -4.02 5.66 -3 6 C-2.690625 5.38125 -2.38125 4.7625 -2.0625 4.125 C-1.375 2.75 -0.6875 1.375 0 0 Z " fill="#F0F1F1" transform="translate(132,236)"/>
<path d="M0 0 C1.98 0 3.96 0 6 0 C6 5.61 6 11.22 6 17 C4.35 17.33 2.7 17.66 1 18 C-0.23290201 20.45704762 -0.23290201 20.45704762 -1 23 C-1.66 23.33 -2.32 23.66 -3 24 C-3 18.06 -3 12.12 -3 6 C-2.01 6 -1.02 6 0 6 C0 4.02 0 2.04 0 0 Z " fill="#F3F4F5" transform="translate(239,106)"/>
<path d="M0 0 C0 2.31 0 4.62 0 7 C-1.32 7.33 -2.64 7.66 -4 8 C-4.33 9.32 -4.66 10.64 -5 12 C-6.65 12 -8.3 12 -10 12 C-10.33 10.35 -10.66 8.7 -11 7 C-11.66 7 -12.32 7 -13 7 C-13 6.34 -13 5.68 -13 5 C-14.98 5 -16.96 5 -19 5 C-15.58386395 3.14047766 -12.08242178 1.97159236 -8.375 0.8125 C-7.22773438 0.44769531 -6.08046875 0.08289063 -4.8984375 -0.29296875 C-2 -1 -2 -1 0 0 Z " fill="#EBF0F2" transform="translate(165,230)"/>
<path d="M0 0 C0.66 0.33 1.32 0.66 2 1 C2 2.32 2 3.64 2 5 C1.21625 5.061875 0.4325 5.12375 -0.375 5.1875 C-1.24125 5.455625 -2.1075 5.72375 -3 6 C-4.37466625 8.47636012 -4.37466625 8.47636012 -5 11 C-6.32 11 -7.64 11 -9 11 C-8.979375 11.804375 -8.95875 12.60875 -8.9375 13.4375 C-9 16 -9 16 -10 17 C-11.66617115 17.04063832 -13.33388095 17.042721 -15 17 C-15 18.65 -15 20.3 -15 22 C-16.65 22.33 -18.3 22.66 -20 23 C-20.66 21.02 -21.32 19.04 -22 17 C-21.00033203 16.41605469 -21.00033203 16.41605469 -19.98046875 15.8203125 C-12.46632818 11.25928172 -6.31071092 6.06658283 0 0 Z " fill="#E5EDF2" transform="translate(203,203)"/>
<path d="M0 0 C1.65 0 3.3 0 5 0 C5.33 1.65 5.66 3.3 6 5 C7.94999129 4.80528889 7.94999129 4.80528889 10 4 C11.28436734 2.0162233 11.28436734 2.0162233 12 0 C13.65 0 15.3 0 17 0 C17.33 1.32 17.66 2.64 18 4 C16.02 4.66 14.04 5.32 12 6 C11.67 7.65 11.34 9.3 11 11 C9.35 11 7.7 11 6 11 C5.67 9.35 5.34 7.7 5 6 C3.35 6 1.7 6 0 6 C0 4.02 0 2.04 0 0 Z " fill="#FDFCFD" transform="translate(0,226)"/>
<path d="M0 0 C0.66 0 1.32 0 2 0 C2.33 9.24 2.66 18.48 3 28 C2.01 28 1.02 28 0 28 C-0.66 29.98 -1.32 31.96 -2 34 C-3.65 34 -5.3 34 -7 34 C-7 32.02 -7 30.04 -7 28 C-6.21625 27.938125 -5.4325 27.87625 -4.625 27.8125 C-3.75875 27.544375 -2.8925 27.27625 -2 27 C-0.1831892 23.49923125 0.24102719 20.60782433 0.1953125 16.69921875 C0.18886719 15.72275391 0.18242188 14.74628906 0.17578125 13.74023438 C0.15902344 12.73283203 0.14226563 11.72542969 0.125 10.6875 C0.11597656 9.66076172 0.10695313 8.63402344 0.09765625 7.57617188 C0.07416201 5.05054101 0.04131131 2.5253919 0 0 Z " fill="#E2E9F0" transform="translate(7,112)"/>
<path d="M0 0 C1.65 0 3.3 0 5 0 C5 1.98 5 3.96 5 6 C4.34 6 3.68 6 3 6 C3 7.98 3 9.96 3 12 C3.66 12 4.32 12 5 12 C5 13.98 5 15.96 5 18 C3.02 18 1.04 18 -1 18 C-0.88541307 16.56163249 -0.75790884 15.12429034 -0.625 13.6875 C-0.55539063 12.88699219 -0.48578125 12.08648437 -0.4140625 11.26171875 C0 9 0 9 2 6 C1.01 6 0.02 6 -1 6 C-0.67 4.02 -0.34 2.04 0 0 Z " fill="#FBFAFB" transform="translate(206,20)"/>
<path d="M0 0 C2.31 0.33 4.62 0.66 7 1 C7 2.98 7 4.96 7 7 C6.113125 7.268125 5.22625 7.53625 4.3125 7.8125 C0.9988194 8.8666068 0.9988194 8.8666068 -1.6875 10.6875 C-2.8321875 11.3371875 -2.8321875 11.3371875 -4 12 C-4.99 11.67 -5.98 11.34 -7 11 C-4.69 7.37 -2.38 3.74 0 0 Z " fill="#EBF0F2" transform="translate(221,179)"/>
<path d="M0 0 C1.96529009 3.45207476 2.7746477 6.88476226 3.625 10.75 C3.88539062 11.92046875 4.14578125 13.0909375 4.4140625 14.296875 C4.60742188 15.18890625 4.80078125 16.0809375 5 17 C3.68 17 2.36 17 1 17 C-0.34164079 17.2981424 -1.67851173 17.62243192 -3 18 C-3.1875 15.625 -3.1875 15.625 -3 13 C-2.01 12.34 -1.02 11.68 0 11 C-0.495 10.608125 -0.99 10.21625 -1.5 9.8125 C-3.45593143 7.44908285 -3.24207973 5.98564997 -3 3 C-2.01 2.67 -1.02 2.34 0 2 C0 1.34 0 0.68 0 0 Z " fill="#E0EBE9" transform="translate(10,144)"/>
<path d="M0 0 C5.94 0 11.88 0 18 0 C17 4 17 4 14 6 C12.97895449 5.02149805 11.9793879 4.02019573 11 3 C11 2.67 11 2.34 11 2 C9.35 1.67 7.7 1.34 6 1 C6 2.65 6 4.3 6 6 C4.02 6 2.04 6 0 6 C0 4.02 0 2.04 0 0 Z " fill="#F8FCFC" transform="translate(114,237)"/>
<path d="M0 0 C1.32 0.33 2.64 0.66 4 1 C4 2.65 4 4.3 4 6 C3.21625 6.226875 2.4325 6.45375 1.625 6.6875 C-1.21875 7.78125 -1.21875 7.78125 -2.3125 10.625 C-2.6528125 11.800625 -2.6528125 11.800625 -3 13 C-5.64 12.01 -8.28 11.02 -11 10 C-10.67 9.34 -10.34 8.68 -10 8 C-8.68 8 -7.36 8 -6 8 C-6 7.34 -6 6.68 -6 6 C-5.195625 5.7525 -4.39125 5.505 -3.5625 5.25 C-0.828919 4.27761141 -0.828919 4.27761141 -0.1875 1.875 C-0.125625 1.25625 -0.06375 0.6375 0 0 Z " fill="#E4EBF1" transform="translate(178,9)"/>
<path d="M0 0 C1.65 0 3.3 0 5 0 C5 1.65 5 3.3 5 5 C4.01 5.33 3.02 5.66 2 6 C1.34 5.67 0.68 5.34 0 5 C0 6.98 0 8.96 0 11 C-1.98 11 -3.96 11 -6 11 C-6 9.02 -6 7.04 -6 5 C-4.35 4.67 -2.7 4.34 -1 4 C-0.67 2.68 -0.34 1.36 0 0 Z " fill="#EFEFEF" transform="translate(6,21)"/>
<path d="M0 0 C1.98 0 3.96 0 6 0 C6 1.65 6 3.3 6 5 C4.35 5.33 2.7 5.66 1 6 C0.67 7.65 0.34 9.3 0 11 C-1.98 11 -3.96 11 -6 11 C-6 9.35 -6 7.7 -6 6 C-4.02 5.67 -2.04 5.34 0 5 C0 3.35 0 1.7 0 0 Z " fill="#FDFDFD" transform="translate(222,4)"/>
<path d="M0 0 C2.0625 0.4375 2.0625 0.4375 4 1 C3.67 2.65 3.34 4.3 3 6 C1.68 6 0.36 6 -1 6 C-1.042721 4.33388095 -1.04063832 2.66617115 -1 1 C-0.67 0.67 -0.34 0.34 0 0 Z M-7 6 C-5.02 6 -3.04 6 -1 6 C-0.957279 7.66611905 -0.95936168 9.33382885 -1 11 C-2 12 -2 12 -4.5625 12.0625 C-5.7690625 12.0315625 -5.7690625 12.0315625 -7 12 C-7 10.02 -7 8.04 -7 6 Z " fill="#F0F0F0" transform="translate(7,191)"/>
<path d="M0 0 C1.32 0 2.64 0 4 0 C4 1.98 4 3.96 4 6 C2.35 6 0.7 6 -1 6 C-1.66 7.65 -2.32 9.3 -3 11 C-4.32 11 -5.64 11 -7 11 C-7 9.35 -7 7.7 -7 6 C-6.01 6 -5.02 6 -4 6 C-3.360625 5.01 -2.72125 4.02 -2.0625 3 C-1.381875 2.01 -0.70125 1.02 0 0 Z " fill="#FCFCFC" transform="translate(241,89)"/>
<path d="M0 0 C1.65 0 3.3 0 5 0 C4.6875 2.375 4.6875 2.375 4 5 C3.01 5.66 2.02 6.32 1 7 C0.27617533 9.05925139 0.27617533 9.05925139 0 11 C-1.98 11 -3.96 11 -6 11 C-6 9.35 -6 7.7 -6 6 C-4.02 6 -2.04 6 0 6 C0 4.02 0 2.04 0 0 Z " fill="#EEEEEE" transform="translate(6,203)"/>
<path d="M0 0 C0.99 0.33 1.98 0.66 3 1 C4.62567079 1.14715199 6.25586857 1.24721867 7.88671875 1.31640625 C8.82451172 1.35830078 9.76230469 1.40019531 10.72851562 1.44335938 C11.70498047 1.48267578 12.68144531 1.52199219 13.6875 1.5625 C15.16959961 1.62727539 15.16959961 1.62727539 16.68164062 1.69335938 C19.12095546 1.79941654 21.56037113 1.90147714 24 2 C24.33 2.66 24.66 3.32 25 4 C21.77090994 4.05834353 18.54195662 4.09371115 15.3125 4.125 C14.40048828 4.14175781 13.48847656 4.15851563 12.54882812 4.17578125 C7.93151773 4.20936169 4.18067669 4.23556185 0 2 C0 1.34 0 0.68 0 0 Z " fill="#2D3E55" transform="translate(107,233)"/>
<path d="M0 0 C0.33 0 0.66 0 1 0 C1.34833144 4.87664009 0.41685712 7.77050005 -2 12 C-3.65 12 -5.3 12 -7 12 C-7 10.02 -7 8.04 -7 6 C-6.21625 5.938125 -5.4325 5.87625 -4.625 5.8125 C-3.75875 5.544375 -2.8925 5.27625 -2 5 C-0.62533375 2.52363988 -0.62533375 2.52363988 0 0 Z " fill="#FCFCFD" transform="translate(7,128)"/>
<path d="M0 0 C0.66 0 1.32 0 2 0 C2.625 1.875 2.625 1.875 3 4 C2.34 4.66 1.68 5.32 1 6 C0.01 6 -0.98 6 -2 6 C-2.33 7.65 -2.66 9.3 -3 11 C-4.98 11 -6.96 11 -9 11 C-8.34 9.02 -7.68 7.04 -7 5 C-5.824375 4.87625 -5.824375 4.87625 -4.625 4.75 C-1.85250896 4.27193661 -1.85250896 4.27193661 -0.6875 1.9375 C-0.460625 1.298125 -0.23375 0.65875 0 0 Z " fill="#EEEFF2" transform="translate(236,157)"/>
<path d="M0 0 C1.6254308 0.14095064 3.25034051 0.28792087 4.875 0.4375 C5.77992187 0.51871094 6.68484375 0.59992188 7.6171875 0.68359375 C10 1 10 1 12 2 C12 3.98 12 5.96 12 8 C9.03 7.505 9.03 7.505 6 7 C5.67 5.35 5.34 3.7 5 2 C3.35 2 1.7 2 0 2 C0 1.34 0 0.68 0 0 Z " fill="#E5EAEF" transform="translate(102,235)"/>
<path d="M0 0 C1.32 0 2.64 0 4 0 C4.226875 0.721875 4.45375 1.44375 4.6875 2.1875 C6.24831013 5.53209313 8.3031287 7.51603959 11 10 C9.35 10.33 7.7 10.66 6 11 C5.5875 10.195625 5.175 9.39125 4.75 8.5625 C3.26547669 5.85890282 3.26547669 5.85890282 0.8125 5.1875 C0.214375 5.125625 -0.38375 5.06375 -1 5 C-0.67 3.35 -0.34 1.7 0 0 Z " fill="#EBECEF" transform="translate(81,4)"/>
<path d="M0 0 C0.66 0 1.32 0 2 0 C4.1875 2.3125 4.1875 2.3125 6 5 C5.67 5.99 5.34 6.98 5 8 C0.545 8.495 0.545 8.495 -4 9 C-4 8.34 -4 7.68 -4 7 C-3.01 7 -2.02 7 -1 7 C-0.67 4.69 -0.34 2.38 0 0 Z " fill="#E7EEF0" transform="translate(29,190)"/>
<path d="M0 0 C1.65 0 3.3 0 5 0 C5.38218767 1.65614657 5.71395102 3.32457024 6 5 C5 6 5 6 2.4375 6.0625 C1.2309375 6.0315625 1.2309375 6.0315625 0 6 C0 7.32 0 8.64 0 10 C-0.66 10 -1.32 10 -2 10 C-2 8.35 -2 6.7 -2 5 C-1.34 5 -0.68 5 0 5 C0 3.35 0 1.7 0 0 Z " fill="#EFEEEC" transform="translate(211,203)"/>
<path d="M0 0 C0.33 0 0.66 0 1 0 C0.53199289 4.05606165 0.12046792 7.46588679 -2 11 C-3.65 11 -5.3 11 -7 11 C-7 9.35 -7 7.7 -7 6 C-6.21625 5.938125 -5.4325 5.87625 -4.625 5.8125 C-3.75875 5.544375 -2.8925 5.27625 -2 5 C-0.62533375 2.52363988 -0.62533375 2.52363988 0 0 Z " fill="#F0F0F4" transform="translate(7,123)"/>
<path d="M0 0 C0.99 0.33 1.98 0.66 3 1 C1.02 4.63 -0.96 8.26 -3 12 C-4.32 12 -5.64 12 -7 12 C-6.75 9.625 -6.75 9.625 -6 7 C-4.67532254 6.3162955 -3.34136367 5.65035814 -2 5 C-0.71745356 2.46229997 -0.71745356 2.46229997 0 0 Z " fill="#E5EEF6" transform="translate(24,60)"/>
<path d="M0 0 C1.32 0 2.64 0 4 0 C4.66 1.98 5.32 3.96 6 6 C7.32 6 8.64 6 10 6 C10 7.65 10 9.3 10 11 C6.78475695 9.59155282 4.67816132 7.89655214 2.25 5.375 C1.63640625 4.74335937 1.0228125 4.11171875 0.390625 3.4609375 C-0.06828125 2.97882812 -0.5271875 2.49671875 -1 2 C-0.67 1.34 -0.34 0.68 0 0 Z " fill="#F8FBFE" transform="translate(201,38)"/>
<path d="M0 0 C1.8272911 2.74093665 2.93698178 5.13825324 4.125 8.1875 C4.47820313 9.08855469 4.83140625 9.98960937 5.1953125 10.91796875 C5.46085937 11.60503906 5.72640625 12.29210937 6 13 C5.34 13 4.68 13 4 13 C4 12.34 4 11.68 4 11 C3.34 11 2.68 11 2 11 C1.67 9.68 1.34 8.36 1 7 C0.360625 6.896875 -0.27875 6.79375 -0.9375 6.6875 C-1.618125 6.460625 -2.29875 6.23375 -3 6 C-3.33 5.01 -3.66 4.02 -4 3 C-3 1 -3 1 0 0 Z " fill="#DDEAEF" transform="translate(15,162)"/>
<path d="M0 0 C0.66 0.33 1.32 0.66 2 1 C1.67 1.66 1.34 2.32 1 3 C0.01 2.67 -0.98 2.34 -2 2 C-2.99 2.99 -3.98 3.98 -5 5 C-5.99 4.67 -6.98 4.34 -8 4 C-8 2.35 -8 0.7 -8 -1 C-4.34566236 -2.21811255 -3.39369816 -1.56632223 0 0 Z " fill="#E9EEF2" transform="translate(65,221)"/>
<path d="M0 0 C2.875 -0.125 2.875 -0.125 6 0 C6.66 0.66 7.32 1.32 8 2 C7.7578125 4.1640625 7.7578125 4.1640625 7.125 6.625 C6.92132813 7.44226563 6.71765625 8.25953125 6.5078125 9.1015625 C6.34023437 9.72804688 6.17265625 10.35453125 6 11 C4.41028035 8.61542052 3.13258407 6.3695876 1.875 3.8125 C1.52179688 3.09707031 1.16859375 2.38164063 0.8046875 1.64453125 C0.53914062 1.10183594 0.27359375 0.55914062 0 0 Z " fill="#E8EFF4" transform="translate(221,66)"/>
<path d="M0 0 C0.66 0.66 1.32 1.32 2 2 C1.34 2 0.68 2 0 2 C0.020625 2.804375 0.04125 3.60875 0.0625 4.4375 C0 7 0 7 -1 8 C-2.66617115 8.04063832 -4.33388095 8.042721 -6 8 C-6 6.02 -6 4.04 -6 2 C-4.02 1.34 -2.04 0.68 0 0 Z " fill="#F0F0F0" transform="translate(6,13)"/>
<path d="M0 0 C0 1.98 0 3.96 0 6 C-1.11375 6.309375 -2.2275 6.61875 -3.375 6.9375 C-6.7945155 7.82326483 -6.7945155 7.82326483 -9 9 C-8.33333333 7.66666667 -7.66666667 6.33333333 -7 5 C-6.67 4.278125 -6.34 3.55625 -6 2.8125 C-4.40834731 -0.0723705 -3.25623743 0 0 0 Z " fill="#FBFCFD" transform="translate(245,123)"/>
<path d="M0 0 C1.98 0 3.96 0 6 0 C6 1.98 6 3.96 6 6 C4.02 6 2.04 6 0 6 C0 4.02 0 2.04 0 0 Z " fill="#FDFCFD" transform="translate(205,248)"/>
<path d="M0 0 C1.98 0 3.96 0 6 0 C6 1.98 6 3.96 6 6 C4.02 6 2.04 6 0 6 C0 4.02 0 2.04 0 0 Z " fill="#F0F1F0" transform="translate(108,248)"/>
<path d="M0 0 C1.98 0 3.96 0 6 0 C6 1.98 6 3.96 6 6 C4.02 6 2.04 6 0 6 C0 4.02 0 2.04 0 0 Z " fill="#FCFCFC" transform="translate(68,248)"/>
<path d="M0 0 C1.98 0 3.96 0 6 0 C6 1.98 6 3.96 6 6 C4.02 6 2.04 6 0 6 C0 4.02 0 2.04 0 0 Z " fill="#FBFCFC" transform="translate(188,231)"/>
<path d="M0 0 C1.98 0 3.96 0 6 0 C6 1.98 6 3.96 6 6 C4.02 6 2.04 6 0 6 C0 4.02 0 2.04 0 0 Z " fill="#FDFDFD" transform="translate(0,203)"/>
<path d="M0 0 C1.98 0 3.96 0 6 0 C6.36923077 4.55384615 6.36923077 4.55384615 4.5 6.8125 C4.005 7.204375 3.51 7.59625 3 8 C0.37613513 4.93882432 0 4.26826873 0 0 Z " fill="#EFEFEF" transform="translate(17,32)"/>
<path d="M0 0 C1.98 0 3.96 0 6 0 C6 1.98 6 3.96 6 6 C4.02 6 2.04 6 0 6 C0 4.02 0 2.04 0 0 Z " fill="#FCFCFC" transform="translate(0,32)"/>
<path d="M0 0 C1.98 0 3.96 0 6 0 C6 1.98 6 3.96 6 6 C4.02 6 2.04 6 0 6 C0 4.02 0 2.04 0 0 Z " fill="#FCFCFC" transform="translate(228,9)"/>
<path d="M0 0 C1.98 0 3.96 0 6 0 C6 1.98 6 3.96 6 6 C4.02 6 2.04 6 0 6 C0 4.02 0 2.04 0 0 Z " fill="#F1F1F1" transform="translate(74,248)"/>
<path d="M0 0 C1.2065625 0.0309375 1.2065625 0.0309375 2.4375 0.0625 C2.4375 2.0425 2.4375 4.0225 2.4375 6.0625 C0.4575 6.0625 -1.5225 6.0625 -3.5625 6.0625 C-3.605221 4.39638095 -3.60313832 2.72867115 -3.5625 1.0625 C-2.5625 0.0625 -2.5625 0.0625 0 0 Z " fill="#FDFDFD" transform="translate(225.5625,230.9375)"/>
<path d="M0 0 C1.65 0 3.3 0 5 0 C4.67 1.65 4.34 3.3 4 5 C3.071875 5.12375 3.071875 5.12375 2.125 5.25 C-0.18437567 5.81258459 -0.18437567 5.81258459 -1.25 8.0625 C-1.4975 8.701875 -1.745 9.34125 -2 10 C-2.6875 8.375 -2.6875 8.375 -3 6 C-1.5625 2.75 -1.5625 2.75 0 0 Z " fill="#EFEFEF" transform="translate(52,226)"/>
<path d="M0 0 C1.2065625 0.0309375 1.2065625 0.0309375 2.4375 0.0625 C2.4375 2.0425 2.4375 4.0225 2.4375 6.0625 C0.4575 6.0625 -1.5225 6.0625 -3.5625 6.0625 C-3.605221 4.39638095 -3.60313832 2.72867115 -3.5625 1.0625 C-2.5625 0.0625 -2.5625 0.0625 0 0 Z " fill="#ECEDEE" transform="translate(208.5625,219.9375)"/>
<path d="M0 0 C1.98 0 3.96 0 6 0 C6 1.98 6 3.96 6 6 C4.33388095 6.042721 2.66617115 6.04063832 1 6 C0 5 0 5 -0.0625 2.4375 C-0.041875 1.633125 -0.02125 0.82875 0 0 Z " fill="#F0F0F0" transform="translate(239,163)"/>
<path d="M0 0 C1.2065625 0.0309375 1.2065625 0.0309375 2.4375 0.0625 C2.4375 2.0425 2.4375 4.0225 2.4375 6.0625 C0.4575 6.0625 -1.5225 6.0625 -3.5625 6.0625 C-3.605221 4.39638095 -3.60313832 2.72867115 -3.5625 1.0625 C-2.5625 0.0625 -2.5625 0.0625 0 0 Z " fill="#EEEEEE" transform="translate(225.5625,8.9375)"/>
<path d="M0 0 C1.98 0 3.96 0 6 0 C6.042721 1.66611905 6.04063832 3.33382885 6 5 C5 6 5 6 2.4375 6.0625 C1.2309375 6.0315625 1.2309375 6.0315625 0 6 C0 4.02 0 2.04 0 0 Z " fill="#F0F0F0" transform="translate(17,248)"/>
<path d="M0 0 C1.67542976 0.28604898 3.34385343 0.61781233 5 1 C5 2.65 5 4.3 5 6 C3.02 6 1.04 6 -1 6 C-1.042721 4.33388095 -1.04063832 2.66617115 -1 1 C-0.67 0.67 -0.34 0.34 0 0 Z " fill="#F0F0F0" transform="translate(1,231)"/>
<path d="M0 0 C2.5 1.375 2.5 1.375 5 3 C5 3.66 5 4.32 5 5 C3.1875 6.6875 3.1875 6.6875 1 8 C0.01 7.67 -0.98 7.34 -2 7 C-2 5.35 -2 3.7 -2 2 C-1.34 2 -0.68 2 0 2 C0 1.34 0 0.68 0 0 Z " fill="#E7F0F2" transform="translate(20,178)"/>
<path d="M0 0 C2.97 0.495 2.97 0.495 6 1 C6 2.65 6 4.3 6 6 C4.02 6 2.04 6 0 6 C0 4.02 0 2.04 0 0 Z " fill="#FEFEFE" transform="translate(0,43)"/>
<path d="M0 0 C1.98 0 3.96 0 6 0 C6 1.65 6 3.3 6 5 C3.69 5.33 1.38 5.66 -1 6 C-0.67 4.02 -0.34 2.04 0 0 Z " fill="#EEF0F1" transform="translate(239,186)"/>
<path d="M0 0 C1.65 0 3.3 0 5 0 C5.38218767 1.65614657 5.71395102 3.32457024 6 5 C5 6 5 6 2.4375 6.0625 C1.2309375 6.0315625 1.2309375 6.0315625 0 6 C0 4.02 0 2.04 0 0 Z " fill="#FDFEFE" transform="translate(0,123)"/>
<path d="M0 0 C0.33 0.66 0.66 1.32 1 2 C-2.61328125 6.6875 -2.61328125 6.6875 -4 8 C-4.99 8 -5.98 8 -7 8 C-7.2475 8.639375 -7.495 9.27875 -7.75 9.9375 C-9 12 -9 12 -11.078125 12.62890625 C-12.02945313 12.81259766 -12.02945313 12.81259766 -13 13 C-9.0580583 8.11950075 -4.88049925 3.9419417 0 0 Z " fill="#2D4052" transform="translate(52,33)"/>
<path d="M0 0 C0 1.98 0 3.96 0 6 C-1.98 6 -3.96 6 -6 6 C-6 4.35 -6 2.7 -6 1 C-4 0 -4 0 0 0 Z " fill="#FCFCFC" transform="translate(34,26)"/>
<path d="M0 0 C1.32 0 2.64 0 4 0 C4 1.98 4 3.96 4 6 C2.02 6 0.04 6 -2 6 C-1.125 1.125 -1.125 1.125 0 0 Z " fill="#F0F0F0" transform="translate(13,26)"/>
<path d="M0 0 C1.9375 0.125 1.9375 0.125 4 1 C5.25 3.5625 5.25 3.5625 6 6 C3.69 6 1.38 6 -1 6 C-1.042721 4.33388095 -1.04063832 2.66617115 -1 1 C-0.67 0.67 -0.34 0.34 0 0 Z " fill="#FCFCFD" transform="translate(81,9)"/>
<path d="M0 0 C2.0625 0.4375 2.0625 0.4375 4 1 C4.33 2.65 4.66 4.3 5 6 C3.02 6 1.04 6 -1 6 C-1.042721 4.33388095 -1.04063832 2.66617115 -1 1 C-0.67 0.67 -0.34 0.34 0 0 Z " fill="#FDFDFD" transform="translate(69,237)"/>
<path d="M0 0 C2.475 0.495 2.475 0.495 5 1 C5.5625 2.9375 5.5625 2.9375 6 5 C5 6 5 6 2.4375 6.0625 C1.2309375 6.0315625 1.2309375 6.0315625 0 6 C0 4.02 0 2.04 0 0 Z " fill="#FDFBFD" transform="translate(0,168)"/>
<path d="M0 0 C0.99 0.33 1.98 0.66 3 1 C0.74681303 4.4248442 -0.63003379 5.85465613 -4.5 7.375 C-7.74537673 7.95453156 -8.99301567 7.91000842 -12 7 C-11.30132812 6.66226563 -10.60265625 6.32453125 -9.8828125 5.9765625 C-8.97273437 5.53054687 -8.06265625 5.08453125 -7.125 4.625 C-6.22007812 4.18414062 -5.31515625 3.74328125 -4.3828125 3.2890625 C-1.90465528 2.09497301 -1.90465528 2.09497301 0 0 Z " fill="#293F5B" transform="translate(152,117)"/>
<path d="M0 0 C1.98 0 3.96 0 6 0 C5.67 1.98 5.34 3.96 5 6 C4.01 6.33 3.02 6.66 2 7 C0.5393715 4.35261084 0 3.10551666 0 0 Z " fill="#EEECEE" transform="translate(205,38)"/>
<path d="M0 0 C1.67542976 0.28604898 3.34385343 0.61781233 5 1 C4.67 2.65 4.34 4.3 4 6 C2.35 6 0.7 6 -1 6 C-1.042721 4.33388095 -1.04063832 2.66617115 -1 1 C-0.67 0.67 -0.34 0.34 0 0 Z " fill="#EFEFEF" transform="translate(18,9)"/>
<path d="M0 0 C2.97 0.495 2.97 0.495 6 1 C6 2.65 6 4.3 6 6 C4.02 6 2.04 6 0 6 C0 4.02 0 2.04 0 0 Z " fill="#EFEFEF" transform="translate(91,242)"/>
<path d="M0 0 C2.475 0.495 2.475 0.495 5 1 C5 1.66 5 2.32 5 3 C5.9075 3.12375 6.815 3.2475 7.75 3.375 C10.58970323 3.92109677 12.52590591 4.57263803 15 6 C14.67 6.66 14.34 7.32 14 8 C11.84918551 7.24317654 9.70443181 6.46910913 7.5625 5.6875 C6.36753906 5.25824219 5.17257813 4.82898438 3.94140625 4.38671875 C2.97074219 3.92910156 2.00007813 3.47148437 1 3 C0.67 2.01 0.34 1.02 0 0 Z " fill="#25374C" transform="translate(77,225)"/>
<path d="M0 0 C1.98 0 3.96 0 6 0 C6 1.65 6 3.3 6 5 C3.50907189 6.24546405 2.58919267 5.7767578 0 5 C0 3.35 0 1.7 0 0 Z " fill="#F0F0F0" transform="translate(0,38)"/>
<path d="M0 0 C1.65 0 3.3 0 5 0 C5 1.65 5 3.3 5 5 C1.25 6.125 1.25 6.125 -1 5 C-0.67 3.35 -0.34 1.7 0 0 Z " fill="#FDFDFD" transform="translate(29,15)"/>
<path d="M0 0 C1.2065625 0.0309375 1.2065625 0.0309375 2.4375 0.0625 C2.4375 1.7125 2.4375 3.3625 2.4375 5.0625 C0.7875 5.3925 -0.8625 5.7225 -2.5625 6.0625 C-2.94468767 4.40635343 -3.27645102 2.73792976 -3.5625 1.0625 C-2.5625 0.0625 -2.5625 0.0625 0 0 Z " fill="#EFEFEF" transform="translate(14.5625,14.9375)"/>
<path d="M0 0 C1.98 0 3.96 0 6 0 C5.67 1.65 5.34 3.3 5 5 C3.0625 5.5625 3.0625 5.5625 1 6 C0 5 0 5 -0.0625 2.4375 C-0.041875 1.633125 -0.02125 0.82875 0 0 Z " fill="#EFEFEF" transform="translate(57,4)"/>
<path d="M0 0 C1.98 0 3.96 0 6 0 C6 1.65 6 3.3 6 5 C3.50907189 6.24546405 2.58919267 5.7767578 0 5 C0 3.35 0 1.7 0 0 Z " fill="#F0F0F0" transform="translate(0,4)"/>
<path d="M0 0 C1.98 0 3.96 0 6 0 C6 1.65 6 3.3 6 5 C4.02 5 2.04 5 0 5 C0 3.35 0 1.7 0 0 Z " fill="#FEFEFE" transform="translate(222,243)"/>
<path d="M0 0 C1.98 0 3.96 0 6 0 C6 1.65 6 3.3 6 5 C4.02 5 2.04 5 0 5 C0 3.35 0 1.7 0 0 Z " fill="#FEFEFE" transform="translate(154,243)"/>
<path d="M0 0 C1.98 0 3.96 0 6 0 C6 1.65 6 3.3 6 5 C4.02 5 2.04 5 0 5 C0 3.35 0 1.7 0 0 Z " fill="#EBEDED" transform="translate(114,243)"/>
<path d="M0 0 C1.98 0 3.96 0 6 0 C6 1.65 6 3.3 6 5 C4.02 5 2.04 5 0 5 C0 3.35 0 1.7 0 0 Z " fill="#EEEEEE" transform="translate(34,243)"/>
<path d="M0 0 C1.65 0 3.3 0 5 0 C5 1.98 5 3.96 5 6 C3.35 6 1.7 6 0 6 C0 4.02 0 2.04 0 0 Z " fill="#FDFDFD" transform="translate(23,214)"/>
<path d="M0 0 C1.98 0 3.96 0 6 0 C6 1.65 6 3.3 6 5 C4.02 5 2.04 5 0 5 C0 3.35 0 1.7 0 0 Z " fill="#F1EFEE" transform="translate(0,186)"/>
<path d="M0 0 C2.97 0.495 2.97 0.495 6 1 C5.34 2.65 4.68 4.3 4 6 C2.68 6 1.36 6 0 6 C0 4.02 0 2.04 0 0 Z " fill="#EEEEEE" transform="translate(228,49)"/>
<path d="M0 0 C1.65 0 3.3 0 5 0 C5 1.98 5 3.96 5 6 C3.35 6 1.7 6 0 6 C0 4.02 0 2.04 0 0 Z " fill="#FDFDFD" transform="translate(23,32)"/>
<path d="M0 0 C1.98 0 3.96 0 6 0 C6 1.65 6 3.3 6 5 C4.35 5 2.7 5 1 5 C0.67 3.35 0.34 1.7 0 0 Z " fill="#EEEEEE" transform="translate(182,243)"/>
<path d="M0 0 C1.65 0 3.3 0 5 0 C5 1.65 5 3.3 5 5 C3.35 5.33 1.7 5.66 0 6 C0 4.02 0 2.04 0 0 Z " fill="#EEEEEE" transform="translate(23,220)"/>
<path d="M0 0 C1.32 0 2.64 0 4 0 C4 1.98 4 3.96 4 6 C2.35 6 0.7 6 -1 6 C-1.042721 4.33388095 -1.04063832 2.66617115 -1 1 C-0.67 0.67 -0.34 0.34 0 0 Z " fill="#EFEFEF" transform="translate(212,214)"/>
<path d="M0 0 C0 1.98 0 3.96 0 6 C-1.1446875 6.1546875 -1.1446875 6.1546875 -2.3125 6.3125 C-5.17059424 7.04364039 -6.15742885 7.76951913 -8 10 C-6.95558375 6.6768574 -4.14711476 0 0 0 Z " fill="#EEEEEE" transform="translate(17,208)"/>
<path d="M0 0 C1.33332095 2.6666419 0.67102033 4.16680303 0 7 C-1.65 6.67 -3.3 6.34 -5 6 C-5 4.68 -5 3.36 -5 2 C-3.35 1.34 -1.7 0.68 0 0 Z " fill="#FCFDFC" transform="translate(28,190)"/>
<path d="M0 0 C1.65 0 3.3 0 5 0 C5 1.98 5 3.96 5 6 C3.35 6 1.7 6 0 6 C0 4.02 0 2.04 0 0 Z " fill="#FDFDFD" transform="translate(6,26)"/>
<path d="M0 0 C1.98 0 3.96 0 6 0 C5.67 1.65 5.34 3.3 5 5 C3.35 5 1.7 5 0 5 C0 3.35 0 1.7 0 0 Z " fill="#FEFDFE" transform="translate(0,21)"/>
<path d="M0 0 C1.65 0 3.3 0 5 0 C5 1.65 5 3.3 5 5 C3.02 5 1.04 5 -1 5 C-0.67 3.35 -0.34 1.7 0 0 Z " fill="#FEFDFE" transform="translate(223,15)"/>
<path d="M0 0 C1.98 0 3.96 0 6 0 C6 1.65 6 3.3 6 5 C4.35 5 2.7 5 1 5 C0.67 3.35 0.34 1.7 0 0 Z " fill="#EDECEE" transform="translate(91,4)"/>
<path d="M0 0 C1.32 0 2.64 0 4 0 C3.49396008 2.16874252 3.00016187 3.99967627 2 6 C0.68 6 -0.64 6 -2 6 C-1.125 1.125 -1.125 1.125 0 0 Z " fill="#F1F0F0" transform="translate(230,174)"/>
<path d="M0 0 C2.02045442 0.60183749 4.02111039 1.27306096 6 2 C6.33 2.66 6.66 3.32 7 4 C6.67 4.66 6.34 5.32 6 6 C6.66 6 7.32 6 8 6 C8.33 7.65 8.66 9.3 9 11 C8.34 11 7.68 11 7 11 C5.71993203 9.21601386 4.52339649 7.37146094 3.375 5.5 C2.42753906 3.96859375 2.42753906 3.96859375 1.4609375 2.40625 C0.97882813 1.6121875 0.49671875 0.818125 0 0 Z " fill="#E0EFF6" transform="translate(213,54)"/>
<path d="M0 0 C0.66 0.66 1.32 1.32 2 2 C-0.64 3.98 -3.28 5.96 -6 8 C-7 4 -7 4 -6 2 C-4.02 2 -2.04 2 0 2 C0 1.34 0 0.68 0 0 Z " fill="#E9EFF2" transform="translate(53,30)"/>
<path d="M0 0 C2.0625 0.4375 2.0625 0.4375 4 1 C4 2.65 4 4.3 4 6 C2.35 6 0.7 6 -1 6 C-1.042721 4.33388095 -1.04063832 2.66617115 -1 1 C-0.67 0.67 -0.34 0.34 0 0 Z " fill="#EDEDED" transform="translate(24,26)"/>
<path d="M0 0 C1.65 0.33 3.3 0.66 5 1 C5 2.32 5 3.64 5 5 C3.02 5 1.04 5 -1 5 C-0.67 3.35 -0.34 1.7 0 0 Z " fill="#EBEBEB" transform="translate(206,243)"/>
<path d="M0 0 C1.65 0 3.3 0 5 0 C5 1.65 5 3.3 5 5 C3.02 5 1.04 5 -1 5 C-0.67 3.35 -0.34 1.7 0 0 Z " fill="#F0F0F0" transform="translate(240,209)"/>
<path d="M0 0 C1.65 0 3.3 0 5 0 C4.67 1.65 4.34 3.3 4 5 C2.68 5.33 1.36 5.66 0 6 C0 4.02 0 2.04 0 0 Z " fill="#EEEEEE" transform="translate(6,32)"/>
<path d="M0 0 C0 1.98 0 3.96 0 6 C-1.65 6 -3.3 6 -5 6 C-5 4.35 -5 2.7 -5 1 C-2 0 -2 0 0 0 Z " fill="#FDFDFD" transform="translate(62,9)"/>
<path d="M0 0 C2.0625 0.4375 2.0625 0.4375 4 1 C4 2.65 4 4.3 4 6 C2.35 6 0.7 6 -1 6 C-1.042721 4.33388095 -1.04063832 2.66617115 -1 1 C-0.67 0.67 -0.34 0.34 0 0 Z " fill="#EEEEED" transform="translate(178,9)"/>
<path d="M0 0 C0 1.98 0 3.96 0 6 C-1.65 6 -3.3 6 -5 6 C-5 4.35 -5 2.7 -5 1 C-1.125 0 -1.125 0 0 0 Z " fill="#FEFEFE" transform="translate(57,242)"/>
<path d="M0 0 C2.475 0.495 2.475 0.495 5 1 C5 2.65 5 4.3 5 6 C3.35 6 1.7 6 0 6 C0 4.02 0 2.04 0 0 Z " fill="#EDEDED" transform="translate(23,242)"/>
<path d="M0 0 C1.32 0 2.64 0 4 0 C4 1.65 4 3.3 4 5 C2.02 5 0.04 5 -2 5 C-1.34 3.35 -0.68 1.7 0 0 Z " fill="#FDFDFD" transform="translate(196,226)"/>
<path d="M0 0 C1.98 0 3.96 0 6 0 C6 1.32 6 2.64 6 4 C2.25 5.125 2.25 5.125 0 4 C0 2.68 0 1.36 0 0 Z " fill="#ECE9EC" transform="translate(154,10)"/>
<path d="M0 0 C1.65 0 3.3 0 5 0 C5 1.65 5 3.3 5 5 C3.35 5 1.7 5 0 5 C0 3.35 0 1.7 0 0 Z " fill="#FEFEFE" transform="translate(211,243)"/>
<path d="M0 0 C1.65 0 3.3 0 5 0 C5 1.65 5 3.3 5 5 C3.35 5 1.7 5 0 5 C0 3.35 0 1.7 0 0 Z " fill="#EEEEEE" transform="translate(160,243)"/>
<path d="M0 0 C1.65 0 3.3 0 5 0 C5 1.65 5 3.3 5 5 C3.35 5 1.7 5 0 5 C0 3.35 0 1.7 0 0 Z " fill="#EEEDEE" transform="translate(103,243)"/>
<path d="M0 0 C0.99 0.33 1.98 0.66 3 1 C2.67 2.65 2.34 4.3 2 6 C0.68 6 -0.64 6 -2 6 C-2 4.35 -2 2.7 -2 1 C-1.34 0.67 -0.68 0.34 0 0 Z " fill="#EEEEEE" transform="translate(8,225)"/>
<path d="M0 0 C1.65 0 3.3 0 5 0 C5 1.65 5 3.3 5 5 C4.01 5.495 4.01 5.495 3 6 C2.01 5.34 1.02 4.68 0 4 C0 2.68 0 1.36 0 0 Z " fill="#EDEDEB" transform="translate(234,180)"/>
<path d="M0 0 C1.65 0 3.3 0 5 0 C5 1.65 5 3.3 5 5 C3.35 5 1.7 5 0 5 C0 3.35 0 1.7 0 0 Z " fill="#EFEFEF" transform="translate(23,38)"/>
<path d="M0 0 C1.2065625 0.0309375 1.2065625 0.0309375 2.4375 0.0625 C2.4375 1.7125 2.4375 3.3625 2.4375 5.0625 C0.7875 4.7325 -0.8625 4.4025 -2.5625 4.0625 C-2.8925 3.0725 -3.2225 2.0825 -3.5625 1.0625 C-2.5625 0.0625 -2.5625 0.0625 0 0 Z " fill="#FDFDFD" transform="translate(197.5625,20.9375)"/>
<path d="M0 0 C2.0625 0.4375 2.0625 0.4375 4 1 C3.67 2.65 3.34 4.3 3 6 C2.01 6.33 1.02 6.66 0 7 C-0.38133299 5.0085944 -0.71325582 3.00720923 -1 1 C-0.67 0.67 -0.34 0.34 0 0 Z " fill="#E9EEF1" transform="translate(70,15)"/>
<path d="M0 0 C1.65 0 3.3 0 5 0 C5 1.65 5 3.3 5 5 C3.35 5 1.7 5 0 5 C0 3.35 0 1.7 0 0 Z " fill="#EFEFEF" transform="translate(23,15)"/>
<path d="M0 0 C1.32 0 2.64 0 4 0 C4 1.65 4 3.3 4 5 C2.35 5 0.7 5 -1 5 C-0.67 3.35 -0.34 1.7 0 0 Z " fill="#FEFEFC" transform="translate(132,243)"/>
<path d="M0 0 C4.455 0.99 4.455 0.99 9 2 C8.67 2.99 8.34 3.98 8 5 C6.02 5 4.04 5 2 5 C1.34 3.35 0.68 1.7 0 0 Z " fill="#E7EBF2" transform="translate(90,232)"/>
<path d="M0 0 C1.32 0 2.64 0 4 0 C4 1.65 4 3.3 4 5 C2.35 5 0.7 5 -1 5 C-0.67 3.35 -0.34 1.7 0 0 Z " fill="#FEFEFE" transform="translate(24,203)"/>
<path d="M0 0 C1.32 0 2.64 0 4 0 C4 1.65 4 3.3 4 5 C2.35 5 0.7 5 -1 5 C-0.67 3.35 -0.34 1.7 0 0 Z " fill="#EEEDED" transform="translate(212,43)"/>
<path d="M0 0 C3.3 0 6.6 0 10 0 C7.3144406 2.6855594 4.62378672 3.06049974 1 4 C0.67 2.68 0.34 1.36 0 0 Z " fill="#E6EDF3" transform="translate(75,15)"/>
<path d="M0 0 C1.32 0 2.64 0 4 0 C4 1.65 4 3.3 4 5 C3.01 5.33 2.02 5.66 1 6 C0.34 5.67 -0.32 5.34 -1 5 C-0.67 3.35 -0.34 1.7 0 0 Z " fill="#FDFDFD" transform="translate(98,4)"/>
<path d="M0 0 C1.98 0 3.96 0 6 0 C6 1.32 6 2.64 6 4 C4.02 4 2.04 4 0 4 C0 2.68 0 1.36 0 0 Z " fill="#F0F0F0" transform="translate(222,0)"/>
<path d="M0 0 C1.98 0 3.96 0 6 0 C6 1.32 6 2.64 6 4 C4.02 4 2.04 4 0 4 C0 2.68 0 1.36 0 0 Z " fill="#FCFBFC" transform="translate(0,0)"/>
<path d="M0 0 C1.32 0 2.64 0 4 0 C4.66 1.32 5.32 2.64 6 4 C4.02 4.33 2.04 4.66 0 5 C0 3.35 0 1.7 0 0 Z " fill="#FBFCFD" transform="translate(86,232)"/>
<path d="M0 0 C0.99 0 1.98 0 3 0 C2.34 5.28 1.68 10.56 1 16 C0.67 16 0.34 16 0 16 C0 10.72 0 5.44 0 0 Z " fill="#C6CFDB" transform="translate(236,112)"/>
<path d="M0 0 C0.33 0.99 0.66 1.98 1 3 C-2.625 6 -2.625 6 -6 6 C-6.33 6.66 -6.66 7.32 -7 8 C-7 7.01 -7 6.02 -7 5 C-5.46875 3.61328125 -5.46875 3.61328125 -3.5 2.3125 C-2.8503125 1.87550781 -2.200625 1.43851563 -1.53125 0.98828125 C-1.0259375 0.66214844 -0.520625 0.33601563 0 0 Z " fill="#2A3E52" transform="translate(62,26)"/>
<path d="M0 0 C1.98 0 3.96 0 6 0 C5.67 1.32 5.34 2.64 5 4 C3.35 4 1.7 4 0 4 C0 2.68 0 1.36 0 0 Z " fill="#FCFBFC" transform="translate(171,0)"/>
<path d="M0 0 C1.98 0 3.96 0 6 0 C5.67 1.32 5.34 2.64 5 4 C3.35 4 1.7 4 0 4 C0 2.68 0 1.36 0 0 Z " fill="#FBFEFB" transform="translate(148,0)"/>
<path d="M0 0 C1.98 0 3.96 0 6 0 C5.67 1.32 5.34 2.64 5 4 C3.35 4 1.7 4 0 4 C0 2.68 0 1.36 0 0 Z " fill="#FEFEFE" transform="translate(11,0)"/>
<path d="M0 0 C2.475 0.495 2.475 0.495 5 1 C5 2.32 5 3.64 5 5 C3.35 5 1.7 5 0 5 C0 3.35 0 1.7 0 0 Z " fill="#EDEDED" transform="translate(234,55)"/>
<path d="M0 0 C2.475 0.495 2.475 0.495 5 1 C5 2.32 5 3.64 5 5 C3.35 4.67 1.7 4.34 0 4 C0 2.68 0 1.36 0 0 Z " fill="#EEEEEE" transform="translate(216,38)"/>
<path d="M0 0 C4 0 4 0 6.25 1.875 C8 4 8 4 8 6 C2.33846154 4.52307692 2.33846154 4.52307692 0.625 1.875 C0.41875 1.25625 0.2125 0.6375 0 0 Z " fill="#D8F0FA" transform="translate(77,204)"/>
<path d="M0 0 C0.66 0 1.32 0 2 0 C3.37482707 1.63260714 4.70647667 3.30225062 6 5 C6.66 5.66 7.32 6.32 8 7 C4.32579134 6.69381595 3.21864487 6.24228216 0.6875 3.4375 C0.130625 2.633125 -0.42625 1.82875 -1 1 C-0.67 0.67 -0.34 0.34 0 0 Z " fill="#DFF0FD" transform="translate(56,188)"/>
<path d="M0 0 C1.32 0 2.64 0 4 0 C4 1.65 4 3.3 4 5 C3.01 5.33 2.02 5.66 1 6 C0 5 0 5 -0.0625 2.4375 C-0.041875 1.633125 -0.02125 0.82875 0 0 Z " fill="#FDFEFE" transform="translate(6,163)"/>
<path d="M0 0 C1.32 0 2.64 0 4 0 C4.36923077 4.55384615 4.36923077 4.55384615 2.5 6.8125 C2.005 7.204375 1.51 7.59625 1 8 C0.67 5.36 0.34 2.72 0 0 Z " fill="#E3E8EB" transform="translate(234,100)"/>
<path d="M0 0 C0.33 1.32 0.66 2.64 1 4 C-0.9375 6.25 -0.9375 6.25 -3 8 C-3.99 7.67 -4.98 7.34 -6 7 C-4.02 4.69 -2.04 2.38 0 0 Z " fill="#334055" transform="translate(38,46)"/>
<path d="M0 0 C1.65 0 3.3 0 5 0 C4.25 1.9375 4.25 1.9375 3 4 C0.875 4.75 0.875 4.75 -1 5 C-0.67 3.35 -0.34 1.7 0 0 Z " fill="#FAFCFC" transform="translate(29,50)"/>
<path d="M0 0 C0.721875 0.103125 1.44375 0.20625 2.1875 0.3125 C2.1875 0.9725 2.1875 1.6325 2.1875 2.3125 C0.8675 2.3125 -0.4525 2.3125 -1.8125 2.3125 C-1.8125 2.9725 -1.8125 3.6325 -1.8125 4.3125 C-3.7925 4.6425 -5.7725 4.9725 -7.8125 5.3125 C-3.50480769 0.38942308 -3.50480769 0.38942308 0 0 Z " fill="#FAFBFB" transform="translate(173.8125,12.6875)"/>
<path d="M0 0 C0.66 0.66 1.32 1.32 2 2 C1.625 4.125 1.625 4.125 1 6 C-0.65 6.33 -2.3 6.66 -4 7 C-2.68 4.69 -1.36 2.38 0 0 Z " fill="#DAE9EC" transform="translate(218,184)"/>
<path d="M0 0 C1.65 0 3.3 0 5 0 C5 1.32 5 2.64 5 4 C3.35 4 1.7 4 0 4 C0 2.68 0 1.36 0 0 Z " fill="#EEEEEE" transform="translate(211,0)"/>
<path d="M0 0 C1.65 0 3.3 0 5 0 C5 1.32 5 2.64 5 4 C3.35 4 1.7 4 0 4 C0 2.68 0 1.36 0 0 Z " fill="#EFEFEF" transform="translate(6,0)"/>
<path d="M0 0 C1.32 0 2.64 0 4 0 C2.88213958 3.35358125 1.25245881 5.31158141 -1 8 C-0.67 5.36 -0.34 2.72 0 0 Z " fill="#314160" transform="translate(12,93)"/>
<path d="M0 0 C0.66 0.33 1.32 0.66 2 1 C2 2.98 2 4.96 2 7 C1.01 7.495 1.01 7.495 0 8 C-0.66 5.69 -1.32 3.38 -2 1 C-1.34 0.67 -0.68 0.34 0 0 Z " fill="#DFE8ED" transform="translate(231,82)"/>
<path d="M0 0 C0.99 0.495 0.99 0.495 2 1 C1.01 1.495 1.01 1.495 0 2 C0 1.34 0 0.68 0 0 Z M-3 1 C-2.01 1.33 -1.02 1.66 0 2 C-1.375 4 -1.375 4 -3 6 C-3.66 6 -4.32 6 -5 6 C-5.33 6.66 -5.66 7.32 -6 8 C-6 7.01 -6 6.02 -6 5 C-5.34 5 -4.68 5 -4 5 C-3.67 3.68 -3.34 2.36 -3 1 Z " fill="#1E314E" transform="translate(56,32)"/>
<path d="M0 0 C0.99 0.33 1.98 0.66 3 1 C2.67 2.65 2.34 4.3 2 6 C1.01 6 0.02 6 -1 6 C-1.042721 4.33388095 -1.04063832 2.66617115 -1 1 C-0.67 0.67 -0.34 0.34 0 0 Z " fill="#EDEDED" transform="translate(235,9)"/>
<path d="M0 0 C0.99 0 1.98 0 3 0 C3 1.65 3 3.3 3 5 C1.68 5 0.36 5 -1 5 C-0.67 3.35 -0.34 1.7 0 0 Z " fill="#EAECEC" transform="translate(161,4)"/>
<path d="M0 0 C1.32 0 2.64 0 4 0 C4 1.32 4 2.64 4 4 C2.35 4 0.7 4 -1 4 C-0.67 2.68 -0.34 1.36 0 0 Z " fill="#EDEDED" transform="translate(87,0)"/>
<path d="M0 0 C2 1 2 1 2 1 Z M-2.4375 0.9375 C-1.2309375 0.9684375 -1.2309375 0.9684375 0 1 C-0.33 2.65 -0.66 4.3 -1 6 C-1.33 5.34 -1.66 4.68 -2 4 C-4.01669827 2.86649466 -4.01669827 2.86649466 -6 2 C-5 1 -5 1 -2.4375 0.9375 Z " fill="#F0EEEE" transform="translate(182,236)"/>
<path d="M0 0 C0.99 0.33 1.98 0.66 3 1 C2.67 2.65 2.34 4.3 2 6 C1.01 6 0.02 6 -1 6 C-1.042721 4.33388095 -1.04063832 2.66617115 -1 1 C-0.67 0.67 -0.34 0.34 0 0 Z " fill="#ECECEC" transform="translate(236,214)"/>
<path d="M0 0 C0.66 0 1.32 0 2 0 C1.49396008 2.16874252 1.00016187 3.99967627 0 6 C-0.99 6 -1.98 6 -3 6 C-1.125 1.125 -1.125 1.125 0 0 Z " fill="#213946" transform="translate(218,180)"/>
<path d="M0 0 C0.99 0.33 1.98 0.66 3 1 C2.67 2.65 2.34 4.3 2 6 C0.68 5.67 -0.64 5.34 -2 5 C-1.34 3.35 -0.68 1.7 0 0 Z " fill="#DAE3ED" transform="translate(229,162)"/>
<path d="M0 0 C1.65 0 3.3 0 5 0 C5 1.32 5 2.64 5 4 C3.35 4 1.7 4 0 4 C0 2.68 0 1.36 0 0 Z " fill="#EDEFF1" transform="translate(166,0)"/>
<path d="M0 0 C1.32 0 2.64 0 4 0 C4 1.32 4 2.64 4 4 C2.35 3.67 0.7 3.34 -1 3 C-0.67 2.01 -0.34 1.02 0 0 Z " fill="#DEE4E8" transform="translate(132,236)"/>
<path d="M0 0 C2.31 0.66 4.62 1.32 7 2 C6.34 2.66 5.68 3.32 5 4 C1.875 3.625 1.875 3.625 -1 3 C-0.67 2.01 -0.34 1.02 0 0 Z " fill="#DBE2EB" transform="translate(78,228)"/>
<path d="M0 0 C2.475 0.495 2.475 0.495 5 1 C5 2.32 5 3.64 5 5 C4.01 5 3.02 5 2 5 C1.34 3.35 0.68 1.7 0 0 Z " fill="#EDEDED" transform="translate(17,226)"/>
<path d="M0 0 C0.66 1.32 1.32 2.64 2 4 C0.68 4.33 -0.64 4.66 -2 5 C-2.33 3.68 -2.66 2.36 -3 1 C-2.01 0.67 -1.02 0.34 0 0 Z " fill="#ECEDEE" transform="translate(21,192)"/>
<path d="M0 0 C0.66 0 1.32 0 2 0 C2 0.99 2 1.98 2 3 C0.35 3.33 -1.3 3.66 -3 4 C-1.625 2 -1.625 2 0 0 Z M-4 4 C-4 4.99 -4 5.98 -4 7 C-4.66 6.67 -5.32 6.34 -6 6 C-5.34 5.34 -4.68 4.68 -4 4 Z " fill="#D9EDFA" transform="translate(58,160)"/>
<path d="M0 0 C0.99 0 1.98 0 3 0 C3.33 1.65 3.66 3.3 4 5 C2.68 5 1.36 5 0 5 C0 3.35 0 1.7 0 0 Z " fill="#EAF1EE" transform="translate(7,147)"/>
<path d="M0 0 C2.475 0.495 2.475 0.495 5 1 C4.67 2.32 4.34 3.64 4 5 C2 3.625 2 3.625 0 2 C0 1.34 0 0.68 0 0 Z " fill="#DDEDEF" transform="translate(177,21)"/>
</svg>
