<?xml version="1.0" encoding="UTF-8"?>
<svg version="1.1" xmlns="http://www.w3.org/2000/svg" width="256" height="240">
<path d="M0 0 C84.48 0 168.96 0 256 0 C256 79.2 256 158.4 256 240 C171.52 240 87.04 240 0 240 C0 160.8 0 81.6 0 0 Z " fill="#070707" transform="translate(0,0)"/>
<path d="M0 0 C9.38287933 8.01253325 18.45044187 16.31638057 27.40771484 24.80029297 C33.54478667 30.60460561 39.77003537 36.28919909 46 42 C46.33 29.46 46.66 16.92 47 4 C52.94 4 58.88 4 65 4 C65 22.81 65 41.62 65 61 C66.32 61.66 67.64 62.32 69 63 C72.70608439 65.55345185 75.5397603 68.11032897 76.63006401 72.58694267 C76.86159348 75.74347641 76.86606093 78.82955558 76.79467773 81.99389648 C76.79569992 83.18485428 76.79672211 84.37581207 76.79777527 85.6028595 C76.79374843 88.85113069 76.75877633 92.09726024 76.70975757 95.34510684 C76.66584315 98.74560565 76.66187439 102.14615163 76.65357971 105.54689026 C76.63186776 111.97859888 76.57448744 118.40946944 76.50413328 124.84080988 C76.41805314 132.88524853 76.379863 140.92982478 76.34179688 148.97460938 C76.27372106 163.31705822 76.13348592 177.65767975 76 192 C55.54 192 35.08 192 14 192 C14 174.18 14 156.36 14 138 C5.09 138 -3.82 138 -13 138 C-13 155.82 -13 173.64 -13 192 C-33.46 192 -53.92 192 -75 192 C-75.32130935 161.54255147 -75.32130935 161.54255147 -75.40203094 146.49258327 C-75.44635494 138.35445743 -75.50261476 130.21698788 -75.60351562 122.0793457 C-75.68336876 115.63611673 -75.73489237 109.19338302 -75.75270796 102.74967295 C-75.7631194 99.33889439 -75.78750188 95.92953238 -75.84584045 92.51920891 C-75.90392189 88.70718276 -75.91191234 84.89809078 -75.90820312 81.08569336 C-75.93696533 79.96071945 -75.96572754 78.83574554 -75.99536133 77.67668152 C-75.91626956 70.1642677 -75.91626956 70.1642677 -73.26931763 66.80088997 C-71.25885546 65.02874186 -69.20901963 63.51260105 -67 62 C-65.9275732 61.05611454 -64.86803004 60.09701166 -63.83203125 59.11328125 C-63.33856201 58.65655029 -62.84509277 58.19981934 -62.33666992 57.72924805 C-61.83369385 57.26172119 -61.33071777 56.79419434 -60.8125 56.3125 C-59.67973444 55.26297017 -58.5469206 54.21349244 -57.4140625 53.1640625 C-56.8459082 52.6371582 -56.27775391 52.11025391 -55.69238281 51.56738281 C-54.07625369 50.07062156 -52.45689782 48.57746369 -50.8359375 47.0859375 C-44.7968626 41.52758498 -38.79253811 35.93435146 -32.8125 30.3125 C-27.81462524 25.61510808 -22.77903621 20.97197484 -17.66015625 16.40625 C-11.70141292 11.01625604 -5.86106611 5.49577722 0 0 Z " fill="#010101" transform="translate(127,28)"/>
<path d="M0 0 C4.27845757 0.13021393 6.45716184 3.1965097 9.25 6.125 C12.99033107 9.98376662 16.78813415 13.67319792 20.875 17.1640625 C25.33235214 21.01508365 29.64917373 25.02987103 34 29 C34.33 22.07 34.66 15.14 35 8 C49.19 8 63.38 8 78 8 C77.93296875 12.42019531 77.8659375 16.84039063 77.796875 21.39453125 C77.77706423 24.94671791 77.76937053 28.49847748 77.76979065 32.05069733 C77.76694263 35.78622474 77.74338387 39.51884415 77.66748047 43.25366211 C76.46106824 60.05018825 76.46106824 60.05018825 81.4921875 75.22021484 C84.28166996 78.09589869 87.52168018 80.02856818 91 82 C92.38311021 83.20630436 93.73344171 84.45236457 95.03125 85.75 C95.89737915 86.56090088 95.89737915 86.56090088 96.78100586 87.38818359 C97.34827393 87.92008301 97.91554199 88.45198242 98.5 89 C104.96000699 95.04412671 111.46507424 101.03703236 118 107 C116.17495091 110.92300272 113.81729174 113.73787272 111 117 C105.10989625 112.95261027 100.15844902 108.31016696 95.19921875 103.171875 C93.00106135 100.86350101 93.00106135 100.86350101 90 99 C89.505 158.895 89.505 158.895 89 220 C31.25 220 -26.5 220 -86 220 C-86.33 180.07 -86.66 140.14 -87 99 C-90.3 101.97 -93.6 104.94 -97 108 C-100.33333333 111 -103.66666667 114 -107 117 C-109.66666667 114.33333333 -112.33333333 111.66666667 -115 109 C-113.61939823 105.85957169 -112.05371157 103.8553946 -109.54296875 101.53125 C-108.84913086 100.88381836 -108.15529297 100.23638672 -107.44042969 99.56933594 C-106.69696289 98.88645508 -105.95349609 98.20357422 -105.1875 97.5 C-104.03942871 96.43313965 -104.03942871 96.43313965 -102.86816406 95.34472656 C-100.58381462 93.22429372 -98.29258349 91.11152295 -96 89 C-94.81342633 87.90144739 -93.62719152 86.80252857 -92.44140625 85.703125 C-89.81647213 83.27226446 -87.18549738 80.84807226 -84.55175781 78.42675781 C-81.90725432 75.99527914 -79.2656591 73.56065266 -76.625 71.125 C-76.09430908 70.63555908 -75.56361816 70.14611816 -75.0168457 69.6418457 C-70.80871801 65.75640206 -66.62129753 61.84911146 -62.4375 57.9375 C-57.0184907 52.87103616 -51.56548025 47.84509 -46.08984375 42.83984375 C-42.55943252 39.60353772 -39.06091361 36.33331669 -35.5625 33.0625 C-28.73499339 26.67917172 -21.87458306 20.33255256 -15 14 C-12.60366308 11.79221232 -10.20793787 9.58376306 -7.8125 7.375 C-7.25933105 6.86565918 -6.70616211 6.35631836 -6.13623047 5.83154297 C-4.05907669 3.91622838 -1.99811479 1.99811479 0 0 Z M-0.34765625 17.28515625 C-0.91355469 17.87167969 -1.47945313 18.45820313 -2.0625 19.0625 C-4.62058799 21.6624381 -7.23422188 24.12240126 -10 26.5 C-12.60647609 28.7455794 -15.08934521 31.04551512 -17.5 33.5 C-19.75797943 35.79326036 -22.05996504 37.96428028 -24.5 40.0625 C-30.49542326 45.23774012 -36.22267585 50.70746782 -41.99902344 56.12402344 C-49.89250091 63.52439934 -57.79614732 70.91449404 -65.75 78.25 C-67.16539063 79.55710937 -67.16539063 79.55710937 -68.609375 80.890625 C-71 83 -71 83 -74 85 C-74.44703428 87.25134137 -74.44703428 87.25134137 -74.36076355 89.9100647 C-74.36488754 90.94775497 -74.36901154 91.98544525 -74.3732605 93.05458069 C-74.36247467 94.19753098 -74.35168884 95.34048126 -74.34057617 96.51806641 C-74.34101425 97.71804764 -74.34145233 98.91802887 -74.34190369 100.15437317 C-74.34016861 103.44982394 -74.32509762 106.74471466 -74.30418181 110.04006624 C-74.2854599 113.48204692 -74.28366813 116.92403461 -74.28010559 120.36605835 C-74.27077188 126.88614358 -74.24614031 133.40607837 -74.21605712 139.92609727 C-74.17926929 148.07570266 -74.16282136 156.22533235 -74.14648438 164.375 C-74.11724349 178.91678395 -74.05715102 193.45823947 -74 208 C-53.54 208 -33.08 208 -12 208 C-12 190.18 -12 172.36 -12 154 C-3.09 154 5.82 154 15 154 C15 171.82 15 189.64 15 208 C35.46 208 55.92 208 77 208 C77.27047494 185.48307997 77.27047494 185.48307997 77.45228481 162.96592999 C77.50211367 154.91112576 77.56531964 146.85716248 77.67895508 138.80297852 C77.7688991 132.4249185 77.82677922 126.04749361 77.84679645 119.66881698 C77.85849157 116.29356873 77.8858019 112.92013674 77.95157051 109.5454731 C78.01708265 105.7695438 78.02589482 101.99735502 78.02172852 98.22094727 C78.07026474 96.55829834 78.07026474 96.55829834 78.11978149 94.86206055 C78.04437357 88.52991261 77.03769056 85.34397893 72.56114197 80.7361908 C69.69738307 77.85059579 69.69738307 77.85059579 66 77 C66 58.19 66 39.38 66 20 C60.06 20 54.12 20 48 20 C47.67 32.54 47.34 45.08 47 58 C44.36 55.36 41.72 52.72 39 50 C35.99991411 47.3495655 35.99991411 47.3495655 32.97802734 44.72412109 C29.67260001 41.84298955 26.49900122 38.82376556 23.3125 35.8125 C21.92218173 34.50488212 20.53155174 33.19759562 19.140625 31.890625 C18.45162109 31.24287109 17.76261719 30.59511719 17.05273438 29.92773438 C13.89708743 26.96424861 10.7343408 24.00864438 7.5625 21.0625 C7.01311768 20.54856689 6.46373535 20.03463379 5.89770508 19.50512695 C2.97426231 15.99868878 2.97426231 15.99868878 -0.34765625 17.28515625 Z " fill="#FCFCFC" transform="translate(126,12)"/>
<path d="M0 0 C41.91 0 83.82 0 127 0 C124.31900791 3.35124011 122.37634652 5.71886748 119.23046875 8.36328125 C115.14527686 11.85907205 111.21961656 15.49487268 107.3125 19.1875 C105.90402425 20.51342292 104.49516522 21.83893881 103.0859375 23.1640625 C102.39467773 23.81407227 101.70341797 24.46408203 100.99121094 25.13378906 C98.15444284 27.79247657 95.29838203 30.42981108 92.4375 33.0625 C87.77356741 37.35580812 83.13100624 41.67119554 78.5 46 C69.71005132 54.21400118 60.87121044 62.3738781 52 70.5 C42.75999594 78.96597231 33.55422893 87.46360613 24.4375 96.0625 C19.37484423 100.83501924 14.30637065 105.60023468 9.1875 110.3125 C8.27355469 111.15425781 7.35960937 111.99601562 6.41796875 112.86328125 C4.36465024 114.67776465 2.19212656 116.35590508 0 118 C0 79.06 0 40.12 0 0 Z " fill="#FEFEFE" transform="translate(0,0)"/>
<path d="M0 0 C42.24 0 84.48 0 128 0 C128 38.94 128 77.88 128 118 C124.60854693 116.30427347 123.2059289 115.41745372 120.75 112.8125 C118.38277626 110.31050857 115.90131409 108.01967631 113.30078125 105.765625 C108.14312602 101.28823747 103.21489816 96.57990311 98.26757812 91.87304688 C97.20506836 90.86661133 97.20506836 90.86661133 96.12109375 89.83984375 C95.4964624 89.24550537 94.87183105 88.65116699 94.22827148 88.03881836 C92.18334906 86.01762323 92.18334906 86.01762323 90.20863342 84.97631836 C87.8978222 83.49102862 86.5435108 82.29104576 85 80 C84.00501505 74.77736879 84.18457795 69.6077258 84.31640625 64.3203125 C84.32947384 62.78191384 84.33943254 61.2434859 84.34642029 59.70504761 C84.37305601 55.66994779 84.44173475 51.63663218 84.51934814 47.60223389 C84.60379802 42.75418978 84.6357309 37.90554656 84.6765213 33.05697632 C84.7442392 25.70341275 84.87840243 18.35375808 85 11 C65.2 11 45.4 11 25 11 C25 14.96 25 18.92 25 23 C18.08843434 18.21506993 12.37444276 12.5806063 6.54223633 6.57397461 C4.37857159 4.36578298 2.18604156 2.18604156 0 0 Z " fill="#FEFEFE" transform="translate(128,0)"/>
<path d="M0 0 C0 39.6 0 79.2 0 120 C-10.89 120 -21.78 120 -33 120 C-33 83.04 -33 46.08 -33 8 C-26.25 12.5 -26.25 12.5 -23.125 15.75 C-22.52945313 16.36359375 -21.93390625 16.9771875 -21.3203125 17.609375 C-20.88460937 18.06828125 -20.44890625 18.5271875 -20 19 C-14.8201092 14.81200318 -10.41182936 10.2729037 -6.015625 5.26953125 C-1.33562823 0 -1.33562823 0 0 0 Z " fill="#FEFEFE" transform="translate(256,120)"/>
<path d="M0 0 C4.60144126 3.94409251 8.48013998 7.42974628 12.4375 11.875 C13.30246094 12.84179688 14.16742188 13.80859375 15.05859375 14.8046875 C15.69925781 15.52914062 16.33992188 16.25359375 17 17 C20.56107958 16.42991489 22.09075197 15.19624615 24.5 12.5625 C27.04525966 9.79163778 28.47057376 8.76471312 32 7 C32 43.96 32 80.92 32 119 C21.44 119 10.88 119 0 119 C0 79.73 0 40.46 0 0 Z " fill="#FEFEFE" transform="translate(0,121)"/>
<path d="M0 0 C1.98 1.65 3.96 3.3 6 5 C3.50907189 6.24546405 2.58919267 5.7767578 0 5 C0 3.35 0 1.7 0 0 Z " fill="#EFEFEF" transform="translate(0,121)"/>
<path d="M0 0 C0 0.99 0 1.98 0 3 C-0.66 3.66 -1.32 4.32 -2 5 C-2 2 -2 2 0 0 Z M-5 5 C-4.34 5.33 -3.68 5.66 -3 6 C-3 6.66 -3 7.32 -3 8 C-3.99 7.67 -4.98 7.34 -6 7 C-5.67 6.34 -5.34 5.68 -5 5 Z " fill="#F5F5F5" transform="translate(110,27)"/>
</svg>
